<svg xmlns="http://www.w3.org/2000/svg" width="625.375" height="626" viewBox="0 0 625.375 626">
  <g id="dz" transform="translate(0 0)" opacity="0.92">
    <path id="DZA2143" d="M325.883,291.8l1.626,18.761-.375,6.942-1.689,7.442-3.815,43.088-.25.813-.313.813-.563.813-1.313,1.438-.938.813-1.939,2.064-.375.125-3.127.5-.563.188-.25.25-1.876,2.627-.813.876-.5.375-.876.438-2.439.75-.313.063-4.19-.063-.25.063-1.126.375h-.438l-1.689-.188-2.189.125-.25.125-.25.125-2.064,1.5-2.189.813-1.376.688-.313.25-.563.75-.313.688.063.5.313.438,2.564,2.439,4.753,6.566.313.563.25.625.188.688.125.688.063,1.939-.438,3.314.25.938.375.688,5.066,3.94.438.375.188.313.063.438-.25,108.252.563,1.063,1.5,1.939,66.665,39.274,3.127,2.939,2.251,3.252.938,7.379.25,47.779v.063l-7.442,1.5-3.189.625-2.439.563-.75.063-.438-.062-.313-.125-.75-.438-1.751-1.814-1.376-.563-.688-.375-.563-.5-.563-.5-.5-.75-.063-.563.313-.563.438-.688.25-.625.125-.313.375-.25.688-.688.125-.563.188-1.251.25-.563.563-.5.625-.375.563-.438.313-.688-.125-.75-.313-.5-.375-.438-.25-.625v-.313l.188-.625v-.188l-.125-.313-.313-.188-.188-.188-.375-1.188-.063-1.251.563-6.5-.125-.438-.375-.375-.5-.25-1.063-.313-.5-.25-1.751-1.376-3.815-1.689-8.317-1.751-1.626-.125-2.814-.5-.313-.063-.563-.125-1.126-.563-.563-.25-.75-.188-.438-.188-.375-.313-1.188-2.251-1-1.376-1.063-1.251-1.876-1.438-.563-.313-.5-.188-.688.125-.688.438-1.188,1.188-.813.375-.438-.063-1.939-.688-.313-.188-.188-.188-.25-.188-.375-.063-.438.125-.5.5-.313.188-.688-.062-.25-.375-.063-.625-.313-.625-.5-.375-.438-.063-.563.063h-.688l-.625-.313-3.565-3-.313-.5v-2.376l-.188-1.188-.563-.938-1.939-1.438L309,572.656l-1.126-.188-.563-.375-.563-.188-1.188-.188-1.313-.438-.5-.313-.5-.625-.625-1.126-.375-.375-.75-.188h-.625l-1.188.313h-.625l-.688-.125-.438-.125-.25-.438-.063-.813v-.625l.688-2.939.375-3.5-.063-.75-.563-2.064-.375-.625-6.191-4.315-5.191-3.69-2.627-1.876-13.133-9.193-5.191-3.69-10.506-7.379-5.253-3.69-7.817-5.566-7.88-5.566-7.817-5.566-2.627-1.814-5.253-3.752-2.627-1.814-7.88-5.628-5.191-3.69-7.88-5.628-7.88-5.566-13.07-9.381-5.253-3.752-2.376-1.689-4.815-3.44-7.254-5.191-12.007-8.63-4.815-3.5-7.254-5.191-3.377-2.439-4.565-3.127-4.628-3.189-5.253-3.627-10.506-7.129-5.253-3.565-4.378-2.877.375-.375,80.861-56.784L149.652,308l6-.563,5.378,2.752,3.189,2.189,7.442,3.69,6.316,1.251,7.379-2.939,4.253-2.689,9.506-7.442,3.752-2.251,3.44-1.313,27.767-5,4-2.939,18.949-25.578L275.1,233.452l10.569-11.319,2.814-2.376,5.753-3.69,31.832-16.2-.438,28.267-3.877,26.829,4.127,36.835Z" fill="#366127" stroke="#fff" stroke-linecap="round" stroke-linejoin="round" stroke-width="1.251"/>
    <path id="DZA2144" d="M242.833,66.665l-2.564.5-.438.375-.938,1.251-.5.313-.5.063h-.438l-.688.125-.375.25-.188.438.063.438.188.5.125.625-.063.75-.375.75-.5.313-.5.125-.5.063-.625.313-.438.438-.813,1.438-1.438-.375-6.754-3.627H224.2l-.375.063-.375.188h-.625l-.25-.063-.125-.188-.063-.188v-.375l-.063-.313.063-.188.375-.313.125-.125.063-.25.063-.876.125-.688-.063-.188-.188-.313-.125-.125-.25-.125-.438.063-.125-.063-.063-.563.063-.063.813-1,.563-.188.563-.375.5-.5.313-.5.25-.75.375-1.751.313-.625.375-.625,1.063-2.752.188-.375.375-.188.688-.063.188-.125.75-1.126.313-.25.876,2.126,1,.876.876.375.25.25.063.313-.188.313-.25.313-1.063.876-.25.375-.188.438-.063.688v.438l.125.313.25.188.313-.125.313-.438.25-.625.188-.375.188-.125.313.125.688.438.375.125h.563l6.441-1.626h.75l.813.188.5.563,1.126,1.438.188.5-.125.438-.688.438-.188.188-.063.188.125.188.188.313.063.313v.313l-.5.5Z" fill="#366127" stroke="#fff" stroke-linecap="round" stroke-linejoin="round" stroke-width="1.251"/>
    <path id="DZA2145" d="M259.593,49.655v.188l-1.251,1.376L256.9,53.157l-.563.438-.5.25-.688-.063h-.313l-.438.063-.5.313-.313.313-.313.876-.375.563-.438.438-1.751,1.313-.313.438-.188.438-.188.688-.25.563-.188.375-.313.25-.75.25-.375.125-.25.313v1l-.25.563-.313.25-.688.438-.125.313h-.313l-.375.25-.188.375-.188.438-.25,1.5-.125.438-.25.438-.313.375-.313.25-.313.188-.375.125-.313-.063-.25-.188-.125-1.126.5-.5v-.313l-.063-.313-.188-.313-.125-.188.063-.188.188-.188.688-.438.125-.438-.188-.5-1.126-1.438-.5-.563-.813-.188h-.75L234.2,62.725h-.563l-.375-.125-.688-.438-.313-.125-.188.125-.188.375-.25.625-.313.438-.313.125-.25-.188-.125-.313v-.438l.063-.688.188-.438.25-.375,1.063-.876.25-.313.188-.313-.063-.313-.25-.25-.876-.375-1-.876-.876-2.126.75-.5.876-.876.375-.625.25-.188,1.063-.25.563-.438.5-.375.5-.313.688-.25.375.063.188.313.125.125.375-.125,1.126-.688.75-1.313.688-.188.25.188.25.25.25.25.438.125h.25l.625.188.313.063.375.125.188.25.125.313.25.313.313.063,1.126-.063.563-.125.625-.313.5-.438.375-1.063.375-.063.375.125.313.063.375-.188.188-.25,1.376-3,.063-.375-.125-.313V45.9l.188-.063.438.313.313-.063.625.063h.313l1.251-.625.813-.25.375.25.188.375.313.25.313.063.25.125.125.438-.188.5.063.375.5.563.813.375,2.126.5,1.313.563.625.125.313-.125Z" fill="#366127" stroke="#fff" stroke-linecap="round" stroke-linejoin="round" stroke-width="1.251"/>
    <path id="DZA2146" d="M258.03,74.42l-.5-.063h-.25l-.25.188-.25.25-.313.188-.438.063h-.188l-.25.25-.25.438v.813l.125.625.063.25.313.25.063.188v.188l-.188.313-.188.125-.188.063h-.188l-.313-.125-.25-.063-.125.063-.125.125-.125.188-.063.375-.125.25-.063.25.188.25.063.25-.125,1,.063.313.125.25.25.188.25.25.063.188-.063.188-.188.125-.188.125-.75.188-.625.313h-.188l-.25-.188H252.4l-.313.188-.188.313v.188l.125.188.188.125,1.188.5.438.313.188.375v.75l.125.188.188.125.563.188.25.188.125.25.125.063h.75l.313.125.125.188.063.25v.438l.125.188.5.375.25.25,1.063.813,1,1,1.563,2.376.188.5.063.625-.063.75-.188.625-.188.563-.125.188-12.507,11.007-.438-1.313-.25-.375-.438-.563-.438-.313-.563-.313-.688-.188h-.563l-.563.063-.625.25-1.251.813-1.876,1.5-.75.438-.75.313-1.376.188-2.314-.188-.688-.188-.563-.313-.5-.375-.563-.375-.375-.125h-.313l-.938.25-.625.063-.5-.125-.438-.188-.813-.5.75-1.188,1.188-1.251,4.878-4.127.5-.625.188-.563v-.25l-.063-.375-.25-.438-.438-.5-.125-.188-.125-.25.063-.313.25-.313.375-.188,1.313-.438.188-.125.25-.25.5-1.438.563-1.251.438-.75.438-.938.063-.375V89.3l-.25-.5-.25-.188-1.939.188-.75-.063-.625-.313-.313-.688-.063-.876.25-1.188.063-.688-.063-.313h-.375l-.375.063-.438.125h-.188l-.188-.125-.063-.313.125-.313.438-.625V83.3l-.125-.188-.563-.125-.188-.25-.188-.375-.188-.563-.063-.25v-.5l.063-.688.375-1.438.125-.25.313-.5.313-.75v-.25l-.125-.125-1.751-1.188-.313-.125.813-1.438.438-.438.625-.313.5-.063.5-.125.5-.313.375-.75.063-.75-.125-.625-.188-.5-.063-.438.188-.438.375-.25.688-.125h.438l.5-.063.5-.313.938-1.251.438-.375,2.564-.5.125,1.126.25.188.313.063.375-.125.313-.188.313-.25.313-.375.25-.438.125-.438.25-1.5.188-.438.188-.375.375-.25h.313l.625-.063.688-.188.625-.25.5-.125.188.063.188.25-.063.563-.313.5-.5.688.125.25.438.313,1,.438.625.188h.438l.438-.5.25-.125h.313l4.69,1.814.5.375.063.5-.188.688-.125.625-.125.313-.125.563v.5l-.063.375-.25.25v.188l.063.313.625.563.375.563.5,1.126Z" fill="#366127" stroke="#fff" stroke-linecap="round" stroke-linejoin="round" stroke-width="1.251"/>
    <path id="DZA2147" d="M232.764,75.733l.313.125,1.751,1.188.125.125v.25l-.313.75-.313.5-.125.25-.375,1.438-.063.688v.5l.063.25.188.563.188.375.188.25.563.125.125.188v.188l-.438.625-.125.313.063.313.188.125h.188l.438-.125.375-.063h.375l.063.313-.063.688-.25,1.188.063.876.313.688.625.313.75.063,1.939-.188.25.188.25.5v.25l-.063.375-.438.938-.438.75-.563,1.251-.5,1.438-.25.25-.188.125-1.313.438-.375.188-.25.313-.063.313.125.25.125.188.438.5.25.438.063.375v.25l-.188.563-.5.625-4.878,4.127-1.188,1.251-.75,1.188-.5.438-.375.25-1.814.813-.188.125-.375.375-.375.313-.25.125-.313.063-2.064.188-.688-.063-1.438.063-.938-.063-.438.063-1.063.313L212.94,112l-.438.25-.063-.5L210.251,105l-.75-1.626L208.312,102l3.252-3.94-.375-.188-1.063-.313L206.5,93.806l.25-.625,1.563-2.5.75-1.626.375-.313.125-.25L209,87.928l-3.189-2.064-1-.938-1.626-1-.375-.5-.188-.5v-.5l-.125-.438-.438-.313-1.313-.125-1.063-.688-.938-.876-1.126-.813-.876-.375-.563-.75-.313-.938V75.67l.688-.313.313.125.063.188.938-.438,1,.188,1.126.5,1,.25,1.939-.25.688.188.25.063.25-.063.5-.438,2.814-.813.813-.563.25-.063h.876l.438-.063.438-.375,1-1.188,1.939-.625.313-.25.25-.625,3.627-3.064.563-.25,2.877-.313.813-.25.25-.125.063.563.125.063.438-.063.25.125.125.125.188.313.063.188-.125.688-.063.876-.063.25-.125.125-.375.313-.063.188.063.313v.375l.063.188.125.188.25.063h.625l.375-.188.375-.063h.375l6.754,3.627,1.438.375Z" fill="#366127" stroke="#fff" stroke-linecap="round" stroke-linejoin="round" stroke-width="1.251"/>
    <path id="DZA2148" d="M275.1,233.452,257.029,267.16,238.08,292.738l-4,2.939-27.767,5-3.44,1.313-3.752,2.251-9.506,7.442-4.253,2.689-7.379,2.939-6.316-1.251-7.442-3.69-3.189-2.189-5.378-2.752-6,.563-45.777,12.32-22.2-47.341,3.565-.75,3.815-.5,1.063,3.189,2.564.938,2.939-.938,3.189-4.127,2.689-4.378,2.126-4.19,2.939-3.127,3.189-2.189,3.377-2.939,2.564-1.939,3.127-1.751,4.44-1.939,4.253-3.44,3.377-4.378,2.939-1.751,3.627-1,4.628-.25,5.066-1.188,5.691-2.939-.438-4.44,1.5-1.5,1.689-2.689-1.626-2.627-.063-.688-.125-.625-.313-.688-.313-.313-1.126-.5-.5-.563-.813-1.313-.438-.438-.563-.188-.438.25-.876.876-.563.188h-.5l-.375-.313-.063-.625.188-.688.625-1.063.063-.813-.188-2.689.125-.625.375-.5,1.689-1.251,2.251-.125.375-9.193,2.064-1.063,1.313.313,1.126-.125,8.818-1.563,6.566-2,5.253-.75-1.251-3.5-2.064-5.566,1.751-.938,5.566-.5,5.441-1.5,6.066.25,12.32.563,7.692.375,6.254.313,2.689.125,3.252.125,1.188-.25.625-1.251-.188-.75-.5-.438-.625-.188H225.2l-1.126.438h-.5l-.125-.625.125-.188.5-.375.188-.25.188-.375.063-.25-.063-.313.063-.438h.5l4.315-.5,2,.063.625.125.563.25.5.25.313.313.313.375.313.5.375.688.938,2.314.688.063,1.5-.188,24.39-7.755L250.9,208v1.376l.938,1.939,6.5,7.5,16.76,14.634Z" fill="#366127" stroke="#fff" stroke-linecap="round" stroke-linejoin="round" stroke-width="1.251"/>
    <path id="DZA2149" d="M248.336,107.252l-.375.876-.063.438.188.688.188.625,2.251,4.5.813,2.189.063.438-.063.25v.313l.063.313.563.625.313.188.188-.188v-1l.063-.25.25-.188.375-.063.438.063.25-.25.25-.5,1.063-1.563.938-1.126.25-.188.313-.125.563-.188,1.063-.375.25-.25.375-.063h.75l.876.188.25.188.188.188.188.688.063,1.063.063.563-.125.375.063.313.125.125.375-.063,1.313-.688,1.438-1.063.625-.375.5-.063v1.5l-1.063,7.442-.125,6.5.688,8.943-.125,2.5-.313,1.313-1.626,5.628-.563,2-.25,1.438-.063.75.75,6.5-.063.5-.25.75-2.564,6.942-.063.876.063.75.438.75.5.313.438.188.5.063.375.125.313.188.25.5.063.375v1.126l-.25,1.563-.813,2.627-24.39,7.755-1.5.188-.688-.063-.938-2.314-.375-.688-.313-.5-.313-.375-.313-.313-.5-.25-.563-.25-.625-.125-2-.063-4.315.5h-.5l.5-3.252.438-1.313.25-.625.5-.625.5-.25,1.251-.188,1.126-.5,1-.75,1.751-2-.438-.813-8.443-6.5-1.939-.688-1-.876-4.065-6.879,1.251-.938.25-.25.188-.313.125-.313.063-.375.063-.813v-.813l-.188-.75-.5-.5-.876-.625-.813-.75-.625-.876-.375-1.126-.563-1.063-1.5-1.5-.313-1.188V138.52l.313-.876.438-.938.563-2,.438-.688.438-1-.188-1.188-1.313-3.252-.375-.438-.5-.375-1.063-.375-.438-.375-.188-.563.125-.563.313-.375L211,125.2l.313-.375.25-.5v-.438l-.313-1.063-.25-1.751.063-1.751,1.438-5.879.063-.688-.063-.5.438-.25,5.378-3.314,1.063-.313.438-.063.938.063,1.438-.063.688.063,2.064-.188.313-.063.25-.125.375-.313.375-.375.188-.125,1.814-.813.375-.25.5-.438.813.5.438.188.5.125.625-.063.938-.25h.313l.375.125.563.375.5.375.563.313.688.188,2.314.188,1.376-.188.75-.313.75-.438,1.876-1.5,1.251-.813.625-.25.563-.063h.563l.688.188.563.313.438.313.438.563.25.375.438,1.313Z" fill="#366127" stroke="#fff" stroke-linecap="round" stroke-linejoin="round" stroke-width="1.251"/>
    <path id="DZA2150" d="M149.652,308l23.514,46.653L92.305,411.434l-.375.375-4.315-2.814-10.131-6.629-11.069-7.254-6-3.877-5.941-3.94-6-3.94-6-3.94L30.518,371.6l-5.941-3.94-6-3.94-6-4-5.941-3.94-6-3.94V304.557l.125-.938.313-.625.563-.5L5.5,300.367,6.879,299.3l1.376-.75.375-.438,1-1.814.5-.375,1.063-.5.5-.313,2-1.876,2.064-1.438,3.377-1.5,1-.75,2.752-2.627,3.252-2.189,1.814-1.689,1.438-.813.5-.313,1.814-1.939,1.063-.438,1.376.063,1.376.25h.625l.688-.063.625-.25,3.44.188,2.752-2.877,3.377-1.438,2.314-.25,3.377.25,5.316,2.126,2.5-2.376,4.253-.5,4.44-1.251,4.19-.438h8.255l22.2,47.341Z" fill="#366127" stroke="#fff" stroke-linecap="round" stroke-linejoin="round" stroke-width="1.251"/>
    <path id="DZA2163" d="M497.986,8.38l-.375.125-.125.313-.063,3.565-.125.438-.125.25-.625.25-.313.188-.188.313-.563,1.188-.813,1.063-.438.813-.625,1-.25.313-.25.25-.313.125-.313.125-.876.125h-.438l-.438-.125-.438-.188-.688-.375-.5-.125-.125-.188-.125-.375v-.813l-.25-.5-.188-.375-2.251-1.251-.375-2.376-.563-1.751V9.943l.063-.438.188-.313.125-.5-.188-.375L485.1,8l-.813-.438-.438-.688L482.539,1.5V1.313l.375.25.188-.125.188-.313.313-.063.25.063.563.375.313.063.25-.063.813-.438h.375l.313.5L486.6,2l.188.25.438.063h.625l.25.125.25.125.5-.25.563-.188,1.063.813.876.938,1,.75,1.376.313.313-.125.25-.125.313-.063.375.063.313.188.313.188.25.25.25.25,1.438-.125.313-.125.563-.625.313-.25-.25.75L498.111,6l-.125.75.5.5-.5,1.126Z" fill="#366127" stroke="#fff" stroke-linecap="round" stroke-linejoin="round" stroke-width="1.251"/>
    <path id="DZA2164" d="M509.868,23.326l-.25.188-.563.438-.375.438-.625.938-.313.313-.438.313-.438.25-.375.188-.5.188-.5.063-.313-.063-.188-.25-.125-1.751-.438-.938-.125-.313-.125-.313-.125-.25-.313-.188L498.3,20.262l-.375-.313-.25-.375-.188-.563-.188-.375-.313-.438-1-.876-.313-.188-1.438-.25.438-.813.813-1.063.563-1.188.188-.313.313-.188.625-.25.125-.25.125-.438.063-3.565.125-.313.375-.125,1.063.813,1.689.5,1.313.188L506.3,8.818l.688-.375.625-.563,4.253-2.126.5.375.563.563L513.5,7l1.376-.063.688.063.563.25.438-.188.375.188.375.313.438.25,1.063.063,1-.063L523,6.5l.125,1-.062.438.125.375,1.063,1.626-.062.438-.563.375-2.064.876-1.063.188-1.126-.063-1.126.125-.938.5-.188.563,1,.563.625.75-.25,1.376-.688,1.313-.688.75L513.5,19.887l-2,.75-.876.563-.688.876-.062,1.251Z" fill="#366127" stroke="#fff" stroke-linecap="round" stroke-linejoin="round" stroke-width="1.251"/>
    <path id="DZA2165" d="M458.149,20.075l-3.877-.813-.25-.125-.125-.188-.188-.5-.188-.063h-.25l-.813.5-.688.25-.188.25-.375.438-.313.125h-.563l-.938-.063-1.188-.313-1.626-.125-1.063-.313-.438-.063-.625.063-1.126.5-.438.313-.313.438-.188.438-.313.313-.625.188-1.063.125-.688-.063-.75-.25-.438-.25-.563-.125-.375-.063-1.188.25-1.814.75-.375-.063-.438-.063-.75-.563-.313-.063-.438.188-.25.188-.5.5-.25.188-.375.125h-.313l-.375-.063-.313-.188-.313-.313-.188-.563v-.438l-.188-.688-.688-.25-.563-.438-.75-.25-.125-.125v-.188l.125-.188.125-.375-.25-1.188.188-.063h.938l.125-.063.375-.5.25-.188,1.188-.438.625-.5.375-1.376.438-.563.5-.438.563-.313,1.313-.375.563-.313,1.126-1,.688-.25h.75l2.064.438,1.251-.063,5.066-1.188,4.878-1.814,1.126-.688.375-.563.188.125.5.5.125.25.063.188v.375l-.188.688.063.313.063.125.625.063.313.063.313.125.25.25.25.313.188.313.125.438.125.563v1.063l.188.625.375.938,1.626,1.751,1.438.75.25.25.125.313-.625,1.438-.063,1.626Z" fill="#366127" stroke="#fff" stroke-linecap="round" stroke-linejoin="round" stroke-width="1.251"/>
    <path id="DZA2166" d="M482.539,1.313V1.5l1.313,5.378.438.688L485.1,8l.313.313.188.375-.125.5-.188.313-.063.438v.438l.563,1.751.375,2.376-.5.188-.563.375-.25.188-.375.5-.062.438-.125.876-.188.25-.313.188h-.5l-.75.188-.813.313-3.377,1.814-.688.563-.75.938-.188.5V22.2l.125.25.063.313-.063.188-.125.125-.25.125-2.314.688-.75.438-.688,1.251-2.251-.563-.5-.25-.438-.063-.313-.125-.125-.25.063-.25.188-.25.375-.313.063-.188v-.313l-.062-.75.063-.25.125-.125.438-.188.313-.063.375.063.375.188.25.063.25-.125.188-.313.063-.375v-.25l-.25-.125h-.563l-3.5.188-1.313-.375-1.626-.75-.188-.313-.125-.313-.188-.188h-.313l-1.626,1.251-.563.125-1.251-.25h-1.063l-1.438-.063.063-1.626.625-1.438-.125-.313-.25-.25-1.438-.75L455.4,13.946l-.375-.938-.188-.625V11.319l-.125-.563-.125-.438-.188-.313-.25-.313-.25-.25-.313-.125-.313-.063-.625-.063-.063-.125-.063-.313.188-.688V7.692l-.063-.188-.125-.25-.5-.5-.188-.125.313-.375V5.441l-.062-.625-.063-.563.375-.75.25-.25,1.251-.938.375-.5.313-.25,1-.563L456.9.688l1.438-.063,1.188.438,1.126.813.125.063.063.375.063.313.125.188.313.063.313.25.313,1.438.5.625L462.9,5l.563.25.563.313.625.125L469.219,6l.375.125.563.313.5.438.313.375V7.88l.876.375,1.188.063h.813l2.689-.876L477.348,7l.5.188.75.188.75.063.313-.313.25-.375,1.251-1.063.438-.25.188-.188.25-.375.25-.5L482.351,4l-.062-.375-.125-.313L480.976,2l-.876-.75V1.063L480.413,1l.563-.188h.313l.313.063.563.313.375.125Z" fill="#366127" stroke="#fff" stroke-linecap="round" stroke-linejoin="round" stroke-width="1.251"/>
    <path id="DZA2188" d="M616.932,462.027l-90.617-.062-.375-.063-.25-.063-.313-.25-.813-.876-.813-1L523,458.65l-1.313-2.877-.313-.5-.375-.438-.438-.375-.375-.062-.313-.063-.75.063-2.439-.313-2.814-.813-.188-.125-.938-.876-.313-.125-.625-.063h-.188l-.5-.188-1.126-.75-2.251-.688-.75-.125-1.5-.063-2-.375-.25-.125-.938-.563-.313-.313-.688-.75-.25-.188-.625-.313-.375-.25-1.876-1.939-.25-.125-.688-.25-.125-.062-1.313-.75-.313-.375-.313-.375-.75-.75-.25-.188-.563-.375-.313-.063-.625.063-.375-.188-.375-.375-.375-.125-.313-.125-.375-.188-.563-.5-.25-.188-.375-.125h-.188l-1.251.125-1.188-.188-1.313-.5-.375-.25-.563-.5-.563-.375-.375-.375-.313-.563-.938-1.126-.813-1.5-.438-.5-.5-.5-1.939-1.313-.563-.5-.313-.5-.25-.438-.625-2.627v-3.565l.125-.625.625-1.563.125-.25,1.376-1.939.25-.625.063-.25v-.688l-.063-.375-.125-.375-.313-.563-.438-.688-.938-.876-3.377-4.315-.375-6.316-.313-1.5-.438-.876-7.5-2.064-.938-.438-.75-.438-3.252-1.376-.5-.375-.375-.375-6.379-8.568-.25-.188-3.127-1.563-.375-.25-.125-.188-.125-.438-.063-.5.063-1.063.125-.75.25-.75,2.5-6,.125-.563.063-.313-.062-.438-.063-.625-.313-1-.563-.938-1.126-1.126-5.941-4.565-1.251-1.313-.313-.438-.188-.5-3.377-11.569-.75-4.065.688-2.877,1.063-1.689,1.876-1.689,2.251-1.689,7.5-7.192,8.13-3.127,1.188-1.063-.625-4.127-1.063-2.752-1.814-1.814-15.009-11.945,14.133-8.317,11.069-4.753h4.5l6.316,1L546.2,257.467l1.563,1.939,3.877,5.753,3.565,6.754,2.376,8.38,2.439,8.317.625,5.253.125,6.566-.75,5.753-1.5,12.07.375,2,4.44,11.757-.063,1.313-2.189,7.129-.5.688-.813.438-.75.563.063.688.5.813.25.688-.25.625-1.251,1.438-.438.75-.438,2-.5,1.376-.125.5v.563l2.564,9.068.563,3.565.313.688.313.313,1.376.75.438.375.125.5-.75,3.627-.062,1.188.313.938.063.688-1.251,4.378-.563.625-10.694,5.128v.688l-.125.563-.25.5-1.063,1-.5,1.313-.438.563-.75,1.563.688,1.876,4.253,5.941,4.628,6.5,8.318,11.695,1.126,2.126.438,2.126.25,9.13.063,4.565.375.938,4.5,2.627.563.938.563,3.064.375,1.188.5.563,4,3.252.563.188,1.188-.125,6.879-2.564.625-.063.688.125,5.753,1.939,18.073,6,.938.563.813,1,4.315,8.818Z" fill="#366127" stroke="#fff" stroke-linecap="round" stroke-linejoin="round" stroke-width="1.251"/>
    <path id="DZA2189" d="M442.953,310.624l15.009,11.945,1.814,1.814,1.063,2.752.625,4.127-1.188,1.063-8.13,3.127-7.5,7.192-2.251,1.689-1.876,1.689-1.063,1.689-.688,2.877.75,4.065,3.377,11.569.188.5.313.438,1.251,1.313,5.941,4.565,1.126,1.126.563.938.313,1,.063.625.063.438-.063.313-.125.563-2.5,6-.25.75-.125.75-.062,1.063.063.5.125.438.125.188.375.25,3.127,1.563.25.188,6.379,8.568.375.375.5.375,3.252,1.376.75.438.938.438,7.5,2.064.438.876.313,1.5.375,6.316,3.377,4.315.938.876.438.688.313.563.125.375.063.375v.688l-.063.25-.25.625-1.376,1.939-.125.25-.625,1.563-.125.625v3.565l.625,2.627.25.438.313.5.563.5,1.939,1.313.5.5.438.5.813,1.5.938,1.126.313.563.375.375.563.375.563.5.375.25,1.313.5,1.188.188,1.251-.125h.188l.375.125.25.188.563.5.375.188.313.125.375.125.375.375.375.188.625-.063.313.063.563.375.25.188.75.75.313.375.313.375,1.313.75.125.063.688.25.25.125,1.876,1.939.375.25.625.313.25.188.688.75.313.313.938.563.25.125,2,.375,1.5.063.75.125,2.251.688,1.126.75.5.188h.188l.625.063.313.125.938.876.188.125,2.814.813,2.439.313.75-.063.313.063.375.063.438.375.375.438.313.5L523,458.65l.75,1.063.813,1,.813.876.313.25.25.063.375.063,90.617.063,3.377,6.942,4.44,9.005-2.064,1.313-6.191,4-6.129,3.94-8.255,5.253-4.065,2.689-6.191,3.94-8.255,5.253-6.129,3.94-8.255,5.253-6.191,3.94-6.129,3.94L546.577,528l-4.065,2.564-8.255,5.253-2.064,1.313L524,542.325l-10.319,6.5-4.127,2.627-2,1.313-4.127,2.564-2.064,1.313-4.127,2.627-2.064,1.313-6,3.752-7.317,6.379-6.629,5.816-1.188,1.063-7.442,6.817-3.815,3.5-3.815,3.5-1.876,1.751-7.63,6.942-3.815,3.5-6.191,5.628-1.313.938-1.376.5-6.879,1.438-16.26,3.314L390.8,620.059l-13.2,2.564v-.062l-.25-47.779-.938-7.379-2.251-3.252-3.127-2.939L304.37,521.937l-1.5-1.939-.563-1.063.25-108.252-.063-.438-.188-.313-.438-.375-5.066-3.94-.375-.688-.25-.938.438-3.314-.063-1.939-.125-.688-.188-.688-.25-.625-.313-.563-4.753-6.566-2.564-2.439-.313-.438-.063-.5.313-.688.563-.75.313-.25,1.376-.688,2.189-.813,2.064-1.5.25-.125.25-.125,2.189-.125,1.689.188h.438l1.126-.375.25-.063,4.19.063.313-.063,2.439-.75.876-.438.5-.375.813-.876L312,375.85l.25-.25.563-.188,3.127-.5.375-.125,1.939-2.064.938-.813,1.313-1.438.563-.813.313-.813.25-.813,3.815-43.088,1.689-7.442.375-6.942L325.883,291.8l27.391-3.064,25.078,19.949,28.267,2.877,36.334-.938Z" fill="#366127" stroke="#fff" stroke-linecap="round" stroke-linejoin="round" stroke-width="1.251"/>
    <path id="DZA2190" d="M303.432,113.13l1.626,3.314.563.563.563.375,1.626.75,1.313.75,4.628,1.313,1.438.563,1,.625.563.375.5.563.5.75,2.189,4.5,4.127,6.254.375,1.126.125,1.563-.125,1.188-.375.938-1.126,1.313-.188.375-.125.438.063.563.375.625.563.876.313.5.188.5.313,2.251.25.813.438,1.063.688,1.188,2.939,3.627.938,2.126,1.689,6.191.876,1.751.25,1.126.188,1.626-.25,8.63.188,1.313.938,3.5.188,1.251.125,1.251-.063,1.438-.313,1.313-.5,1.251-2.627,3.94-.438,1-.063,1.251.188,1,.563,1.689.125.75-.063.625-.5.75-.688.625-2.564,1.814-.876.876-31.832,16.2-5.753,3.69-2.814,2.376L275.1,233.452l-16.76-14.634-6.5-7.5-.938-1.939V208l10.944-31.957.813-2.627.25-1.563v-1.126l-.063-.375-.25-.5-.313-.188-.375-.125-.5-.063-.438-.188-.5-.313-.438-.75-.063-.75.063-.876,2.564-6.942.25-.75.063-.5-.75-6.5.063-.75.25-1.438.563-2,1.626-5.628.313-1.313.125-2.5-.688-8.943.125-6.5,1.063-7.442v-1.5l.375-1,.313-.625.25-.438.876-.938,1.126-.938.438-.5.25-.313.188-.563.25-.563.313-.5.438-.25.5-.188.625-.063,1.814.063.313-.125,1.251-1.063.25-.25,6.566-4.065.125-.063,2.189-1.376,1-.438.876-.063,6.5,2.064,1.251.938.563.625-.438,4.378v.625l.188.375.438.125,4.628-.313,1.188.188.563.313.375.625.625,1.5,1.626,2.064Z" fill="#366127" stroke="#fff" stroke-linecap="round" stroke-linejoin="round" stroke-width="1.251"/>
    <path id="DZA2191" d="M465.4,101.874l.563,1.814.876,1,6.566,3.877,1.689.563,3.565.625,2.064,1.063,2.064.688,1.689.188,6.379-.188-.625.625-.438,1-.063,2.689-.625,3.69.125,1.376.438,2,.188.625.876,1.751.313,1.876.25.938,4.253,7.379.438,1.438.063,4.94.438,1.689.813.876,1.063.313,1.438.125,1.126.375,3.377,2.439.563.313.625.188.625.063.625-.125.688.375,2.877,4.5,3.064,4.815.375,1.126.438,5.066.25,3.69.375,1.188.876,1,3.69,2.376,4.815,3.5,6.379,4.565,5.066,3.69.438.5.313.688.563,2.564-52.907-.063-4.315-.5-4.19-1.313-3.064-3.189-2.376-3.5-3.752-6.754-1.313-3-6.629-23.2-2.627-5.816-5.566-2.126-35.834-2.376,3.44-4.69,2.939-5,1.563-2.064,1.313-1.376.375-.688.25-.813,1.188-7.755-.063-1.814-.062-.813L425,109.566l-.5-1.251-.313-.625-.938-1.376-1.126-1.376L420,103.062l-.125-.188-.125-.25.063-.5.125-.438.188-.438.25-.375.313-.313.375-.188,1.251-.5.5-.313.375-.375.063-.5-.063-.563.188-.5.188-.188.25-.063,1.876.876,2.877.938,15.759,2,5.879-1.251h.563l4.815,1.376,1.751.813.25.313.25.375.313.375.438.375.625.25.438.125.625.125h.938l1-.188,1.063-.438,1.063-.625,1.063-.938Z" fill="#366127" stroke="#fff" stroke-linecap="round" stroke-linejoin="round" stroke-width="1.251"/>
    <path id="DZA2192" d="M413.5,157.594l-7.254,11.132-5.941,5.566-4.315,2.877-.75.813-.5.625-1.063,2-1.188,3.377-2.5,4.69-2.689,6.5-1.876,8.443-7.442,55.033-2.5,4.378-3.69,3.377-2.189,2.564-1.438,2-2.439,9.443-1.626,2-10.819,6.316L325.883,291.8l-4.127-36.835,3.877-26.829.438-28.267.876-.876,2.564-1.814.688-.625.5-.75.063-.625-.125-.75-.563-1.689-.188-1,.063-1.251.438-1,2.627-3.94.5-1.251.313-1.313.063-1.438-.125-1.251-.188-1.251-.938-3.5-.188-1.313.25-8.63-.188-1.626-.25-1.126,10.882-2.064,3.44-1.313,3.69-.813,6.441-.688,1.751.25.75.313,2.5,1.251.876.125.813-.125.813-.5.563-.688,1.188-1.563.625-.688,9.318-4.378.125-.125.75-.063,1.5.063.313.125.813.438,1,.125,8.818-1.689,24.265,6.754Z" fill="#366127" stroke="#fff" stroke-linecap="round" stroke-linejoin="round" stroke-width="1.251"/>
    <path id="DZA2193" d="M389.233,150.84l-8.818,1.689-1-.125-.813-.438-.313-.125-1.5-.063-.75.063-.125.125-9.318,4.378-.625.688-1.188,1.563-.563.688-.813.5-.813.125-.876-.125-2.5-1.251-.75-.313-1.751-.25-6.441.688-3.69.813-3.44,1.313-10.882,2.064-.876-1.751-1.689-6.191-.938-2.126-2.939-3.627-.688-1.188-.438-1.063-.25-.813-.313-2.251-.188-.5-.313-.5-.563-.876-.375-.625-.063-.563.125-.438.188-.375,1.126-1.313.375-.938.125-1.188-.125-1.563-.375-1.126-4.127-6.254-2.189-4.5-.5-.75-.5-.563-.563-.375-1-.625-1.438-.563-4.628-1.313-1.313-.75-1.626-.75-.563-.375-.563-.563-1.626-3.314,9.193-6.879.5-.563.313-.938.188-.75.5-1,.75-1.063,1.626-1.814,1.126-.938.813-.563,3.752-1.126.688-.438,3.252-2.814,2.814-1.626.438-.5.25-.438.25-.5.25-.25.563-.188,2.314-.438,1.251-.063.25,2-.188.438-.25.563-.813.938-.438.813-.25,1.188-.25,2.064.063,1.313.313,1,.375.5.625.625.375.438.313.625.25.876.5,3.189.25.563.375.625,1.126,1.251.438.625.375.75.375.876.125.563-.063.625-.625,1.939-.188.876v.375l.25,2.064.25.438.438.25h.876l2.376.313h1.063l.188-.063.125-.188.125-.876.063-1.126-.125-3.94.063-.375.125-.313.125-.188.375-.125,2.689-.438,1.438-.5.438-.25.313-.313.25-.876.25-.5.375-.438,2.251-2.126.5-.313.438-.063.375.063.688.438.25.125h1.939l.688.313.313.375.75,2.126.375,2.689.25.813.313.876,2.189,3.815,12.32,13.883,11.757,10.319.876,1,.813,1,1,2,1.438,3.877.313,1.188Z" fill="#366127" stroke="#fff" stroke-linecap="round" stroke-linejoin="round" stroke-width="1.251"/>
    <path id="DZA2194" d="M536.947,187.737l.938,4.315.875,3.877.813,3.94,1.751,7.817.813,3.877.876,3.877.876,3.877,1.689,7.817.875,3.815,1.689,7.755,2.564,11.569-7,3.94.688,1.126,1.814,2.126-67.228,41.087-6.316-1h-4.5l-11.069,4.753-14.133,8.317-36.334.938-28.267-2.877-25.078-19.949,10.819-6.316,1.626-2,2.439-9.443,1.438-2,2.189-2.564,3.69-3.377,2.5-4.378,7.442-55.033,1.876-8.443,2.689-6.5,2.5-4.69,1.188-3.377,1.063-2,.5-.625.75-.813,4.315-2.877,5.941-5.566,7.254-11.132-.75-14.446.938-3.44.688-3.815,35.834,2.376,5.566,2.126,2.627,5.816,6.629,23.2,1.313,3,3.752,6.754,2.376,3.5,3.064,3.189,4.19,1.313,4.315.5,52.907.063Z" fill="#366127" stroke="#fff" stroke-linecap="round" stroke-linejoin="round" stroke-width="1.251"/>
    <path id="DZA2195" d="M358.9,13.883l1.751,2.189-1.438.75-1.438.25-.375.188-.375.125h-.375l-.438-.125-.375-.25-.25-.563v-.625l-.25-.438-.876-.25.063-.876-.313-.25-1.188-.063-.25-.063-.125-.188.125-.188.188-.375.063-.813.188-.876v-.25l.938.125,1,.625.75.876.876.75,1.126.375,1-.063Z" fill="#366127" stroke="#fff" stroke-linecap="round" stroke-linejoin="round" stroke-width="1.251"/>
    <path id="DZA2196" d="M385.106,8.067l-.063,1.313-.125.5-.25.5-.876,1.188-.75.876-.5.25-.375.063-.313.188-.063.25.125.313.125.313.25.375.563.625v.25l-.188.313-.5.5-.313.438-.313.313-.375.125-.625-.063-.938-.313-.313-.125-.313.125-.313.375-.125.375-.25.313-.313.063h-.25l-.313-.375-.188-.125-.25-.063-.563.125-.188.125-.25.313-.062.25-.063,1.251-2,.375h-.5l-.25-.125-.125-.25.125-.313.188-.438.876-1.126.125-.375-.062-.25-.125-.25-.25-.188-.563-.25-.375-.063-.375-.063-.5.125-1.188.5-.876.063-1.876-.438-.625.375-.25.125-.313-.063-1.438-.625-.25-.375-.313-.25-.5-.125-.938.063-1.063.188-1.751.813L358.9,13.883h.188l.938-.5.375-.563.125-.563.063-1h.313l1.939.938,1.126.25,3.627.25.625-.063,1.188-.375.625-.063.313-.125.188-.25.188-.25.188-.125.313-.063.688.063h.25l1.188-.625,1.814-1.814.938-.688,2.627-.813,1.376-.188,1.188.188,1.063.688.5.125.313-.063.625-.188h1.313Z" fill="#366127" stroke="#fff" stroke-linecap="round" stroke-linejoin="round" stroke-width="1.251"/>
    <path id="DZA2197" d="M401.8,8.13l.063.25.063.625.188.438,1.251,1.876.063.25.063.375-.063.375-.188.813-.125.375-.313.188-.313-.063-.75-.313-.313-.063-.438.063-.375.25-.25.25-.125.5.063.25.188.313.25.188.625.25.313.125.188.188.188.313-.063.5-.188.5-1.251,2-.375,1.063-.313.438-2.251,2.564-.813.5-1.689.563-.563-.188-1.313.313h-.5l-1.313-.375-.438-.063-.938.438-.5.125-7.567-.313-1.438-.5-1.126-.688-1-1-.75-.563-.938-.75-.876-1.5.063-1.251.063-.25.25-.313.188-.125.563-.125.25.063.188.125.313.375h.25l.313-.063.25-.313.125-.375.313-.375.313-.125.313.125.938.313.625.063.375-.125.313-.313.313-.438.5-.5.188-.313v-.25l-.563-.625-.25-.375-.125-.313-.125-.313.063-.25.313-.188.375-.063.5-.25.75-.876.876-1.188.25-.5.125-.5.063-1.313,1.376.188.625.313,1.251-.688.375-.063.375.063.75.313.438.125.375-.125.75-.5.438-.188.5.063.813.375.438.125,3.627-.563.375.063.438.188.438.188.313.25.375.188h.938l.438.188.938-.438h.313Z" fill="#366127" stroke="#fff" stroke-linecap="round" stroke-linejoin="round" stroke-width="1.251"/>
    <path id="DZA2198" d="M353.212,11.194v.25l-.188.876-.063.813-.188.375-.125.188.125.188.25.063,1.188.063.313.25-.063.876v.5l.25.75.063.25-.063.188-.125.125-.188.125-.625.125-.375.188-.188.25-.25.125-.438.125-3.44-.125-.313.125-.125.25-.063.25-.125.313-.438.375-1.876.938-.563.188-.5.313-.563.438-1.376,1.313-.5.313-.25.438-.125.625-.25.375-.313.25-.625.125-1.126.063-.25-.063-.876-.25h-.25l-.25.25-.188.188-.25,1.438-5.816.25-4.253-.876h-.75l-2,.688-1.126.25-.375.125-.75-.063-.938-.313-4.19-.5-.5.063-.313.25-.188.876-.188.313-.313.313-.313.188-.688.375-.25.125-.313-.063-.813-1.689-1-1.126.125-.688.813-1.313.313-.688.375-1.251h.438l.313-.063.75-.375.313-.063h.25l.688.188h.313l1.689-.438,1.689-.125,1.376.313.375.063,2.627-.375,7.567-2.251.625-.25.625-.063.688.188.563.375.188.313.063.375.125.25.313.125h.375l.625.188.25.063,4.378-.25.938-.375,2.877-2.251,2-1.063.75-.625.75-1.126.188-.5.813-.813,1.689-1.251,1.376-.313.188.063Z" fill="#366127" stroke="#fff" stroke-linecap="round" stroke-linejoin="round" stroke-width="1.251"/>
    <path id="DZA2199" d="M337.89,26.016l.313.75.313.375.313.125.125.188.063.438.25.25.563-.063,1.438-.563.876-.188.75-.438.188.063.125.125.25,1.126-.063.438-.062.313-.25.375-.563.563-.5.313-.5.188-1.876.063-.25.125-.188.188-.313.375-.375.438-.188.25-.125.313v.625l.125.438.5.438.188.313.125.313.25.313.125.125.313-.125.688-.563.188-.125h.188l.563.25h1l.25.063.188.125v.313l-.125.375-.938.938-.438.688-.375.938-.25.5-3.189,2.064-.25.25-.188.375-.188.438-.188.876-.25.5-.375.563L334.2,44.964l-1.313,1.814-2.064-.813-1.438-.876-.75-.188-.75-.063-1.438.25-1.626-.063-1.063-.188-.688.25-.313.375-.125.563-.25.25-.5.125-1.5-.438-.438.125-.5.688-.375.25-.375-.188-.188-.375-.938-1-2.752-.813-.125-.688.125-.5.188-.375-.063-.313-.188-.313-.75-.75-.938-1.939-.25-.688v-.938l-.188-.188-.688-.375-.438-.375-.438-.75-.125-.438.125-.375.25-.188.438-.125.313-.188.188-.375V33.9l-.125-.375-.313-.25-.313-.063-.25-.188v-.313l.313-1-.063-.375-.625-.813-.438-.688L310,28.642l-.063-.625.25-.5,2.126-1.626.5-.688,1,1.126.813,1.689.313.063.25-.125.688-.375.313-.188.313-.313.188-.313.188-.876.313-.25.5-.063,4.19.5.938.313.75.063.375-.125,1.126-.25,2-.688h.75l4.253.876,5.816-.25Z" fill="#366127" stroke="#fff" stroke-linecap="round" stroke-linejoin="round" stroke-width="1.251"/>
    <path id="DZA2200" d="M314.438,21.263l-.375,1.251-.313.688-.813,1.313-.125.688-.5.688-2.126,1.626-.25.5.063.625.438,1.188.438.688.625.813.063.375-.313,1v.313l.25.188.313.063.313.25.125.375v.876l-.188.375-.313.188-.438.125-.25.188-.125.375.125.438.438.75.438.375.688.375.188.188v.938l.25.688L314,41.712l.75.75.188.313.063.313-.188.375-.125.5.125.688-.813.188-.375-.063-1.063-.5-.813-.5-.188-.188-.188-.313-.125-.563-.063-.25L311,42.275l-.75-.688H310l-.188.063-.375.688-.5.5-.125.188-.063.688-.125.313-.125.188-.188.125-1.313.5-.188.188-.063.188.25.563-.125.25-.938.625-.25.188-.125.438.125.438-1.063-.438-.25-.188-.375-.375-.25-.625-.188-.25-.5-.625-.25-.438-.625-1.5-.188-.188-.25-.125-.313.063-2.877.876-.5-.063-.563-.188-1.126-.75-.438-.25-.313-.188-.188-.313-.188-.375-.375-.625-.188-.188-.188-.125-1.126-.063-1.126.063-.313-.063-.25-.188-.813-1.251-.063-.313v-.25l.25-.563v-.5l-.563-1.563-.125-.375-.125-1.063-.063-.313-.375-.125h-.5l-1.751.5-1.251.5h-.5l-.563-.063-.938-.375-.063-.75,1-3,.125-.5.063-.688v-.75h.375l.438-.25L287.3,28.2l1.876-.563.438-.375.313-.313.75-.5.313-.313.125-.313.063-.313.125-.313.313-.375.5-.188,1.376-.313,1.126-.75,2.189-.063.625-.188,1.251-.688.688-.125h1.313l.563-.063.688-.188,1.814-.876.625-.125.563.063,1.313.5.688.188.688-.063,1.251-.375,5.566-.313Z" fill="#366127" stroke="#fff" stroke-linecap="round" stroke-linejoin="round" stroke-width="1.251"/>
    <path id="DZA2201" d="M269.974,53.157l1.126,1,.313,1,.25,1.438.25.688.313.625.438.375.75.125.438-.063,1.063-.25.563-.063.688.063.688.188.75.563.938.876.563.313.563.063.625-.188.5-.063.5.063.625.438.25.313.313.313.5.25,2,.313,1.626.75,1.438.25-.188.688.188.25.313.313,1.063.625.188.25-.063.438-.313.563L287.8,67.6l-.5.625-.75.375-.438.063-.375-.125-.438-.188-1.126-.438-.438-.063h-.313l-.438.125-.438.188-.438.25-.438.313-.375.563-.375.625-.813,1.939-1.563,2.126-.625,1.751-.438.313-.876.688-.563.313-.625.188-.625-.063-1.251-.313-.5.063-1.126.5-.938.188-.5.188-.5.188-.625.188-.563-.125-.75-.5-.375-.5-.5-1-.375-.438-.375-.188-.313.063-.438.188h-.5l-.813-.188-.563.063-.375.313-.25.563-.25.188h-.313l-.625-.438-.5-.5-.25-.188-.438-.063-.313-.25-.188-.188-.063-.438v-.876l-.188-.375-.188-.25-.188-.063-.25.125-.188.313-.125.5-.188.313-.876.188-.5-1.126-.375-.563-.625-.563-.063-.313v-.188l.25-.25.063-.375v-.5l.125-.563.125-.313.125-.625.188-.688-.063-.5-.5-.375-4.69-1.814h-.313l-.25.125-.438.5h-.438l-.625-.188-1-.438-.438-.313-.125-.25.5-.688.313-.5.063-.563-.188-.25-.188-.063-.5.125-.625.25-.688.188-.625.063.125-.313.688-.438.313-.25.25-.563v-1l.25-.313.375-.125.75-.25.313-.25.188-.375.25-.563.188-.688.188-.438.313-.438,1.751-1.313.438-.438.375-.563.313-.876.313-.313.5-.313.438-.063h.313l.688.063.5-.25.563-.438,1.438-1.939,1.251-1.376.063.438.375.563-.063.375.063.25.25.188,1.126.625.313.188.438.063.563-.125,1.438-.375.876-.375.876-.625.25-.125h.188l.25.188.25.5.188.313.5,1.563.188.188.438-.313.625-.188h1.188Z" fill="#366127" stroke="#fff" stroke-linecap="round" stroke-linejoin="round" stroke-width="1.251"/>
    <path id="DZA2202" d="M284.3,34.833l-.688.75-.313.625-.375.438-1.063,1.063-.188.313-.375.813-.25.25-.375.25-.813.25-.25.188-.188.188-.063.438v.876l-.063.563-.063.688-.063.313-.125.125-.375.188-.25.063-.876.125-.25-.063-.313.125-.313.188-.375.75-.188.438-.063.438V45.4l.125.125.25.125.188.188v.25l-.438,1.876-.125.313-.188.313-.375.438-.563.563-.438.313-.5.125-.5-.063h-.25l-.25.063-.313.188-.375.313-.938.813-.313.438-.375.313-.5.438-.188.625h-1.188l-.625.188-.438.313-.188-.188-.5-1.563-.188-.313-.25-.5-.25-.188h-.188l-.25.125-.876.625-.876.375-1.438.375-.563.125-.438-.063-.313-.188-1.126-.625-.25-.188-.063-.25.063-.375-.375-.563-.063-.438v-.188l.938-.188,1.313-.688,1.251-.938,1-.938,1.063-2.189.313-.938,1-2.376.25-.876.063-.375.063-.25.25-.188.313-.125.25-.188,1.5-1.563.5-.375,1.939-.688.313-.25.125-.25.688-.438.25-.188.125-.375.125-.876.125-.313.563-.313.75-.125,1.313-.063.688-.125.5-.375.438-.375,2.251-1.563,1.126-.313.563-.5.438-.5.5-.375.563-.125,2.376-.188v.75l-.063.688-.125.5-1,3,.063.75Z" fill="#366127" stroke="#fff" stroke-linecap="round" stroke-linejoin="round" stroke-width="1.251"/>
    <path id="DZA2203" d="M305.683,47.716l-.25.938-.813,1.063-.438.438-.438.25h-.438l-.813-.313-.438-.063-.5.125-.188.438-.125.563-.063,1.188-.063.688-.438,1.939-1.188.063-.625.188-1.626.938-1.126.375-1.438.938-.876.063-.25.125v.25l.125.25.25.25.063.313-.313.063-.313-.313-.438-.188-.313.063-.25.063-.313.25-2.126,2.314-.188.313-.063.25.125.563-.125.438-.25.188-.25.063-.5-.063-.625-.188-1.438-.25-1.626-.75-2-.313-.5-.25-.313-.313-.25-.313-.625-.438-.5-.063-.5.063-.625.188-.563-.063-.563-.313-.938-.876-.75-.563-.688-.188-.688-.063-.563.063-1.063.25-.438.063-.75-.125-.438-.375-.313-.625-.25-.688-.25-1.438-.313-1-1.126-1,.188-.625.5-.438.375-.313.313-.438.938-.813.375-.313.313-.188.25-.063h.25l.5.063.5-.125.438-.313.563-.563.375-.438.188-.313.125-.313.438-1.876v-.25l-.188-.188-.25-.125-.125-.125v-.188l.063-.438.188-.438.375-.75.313-.188.313-.125.25.063.876-.125.25-.063.375-.188.125-.125.063-.313.063-.688.063-.563V40.4l.063-.438.188-.188.25-.188.813-.25.375-.25.25-.25.375-.813.188-.313,1.063-1.063.375-.438.313-.625.688-.75.938.375.563.063h.5l1.251-.5,1.751-.5h.5l.375.125.063.313.125,1.063.125.375.563,1.563v.5l-.25.563v.25l.063.313.813,1.251.25.188.313.063,1.126-.063,1.126.063.188.125.188.188.375.625.188.375.188.313.313.188.438.25,1.126.75.563.188.5.063,2.877-.876.313-.063.25.125.188.188.625,1.5.25.438.5.625.188.25.25.625.375.375.25.188,1.063.438Z" fill="#366127" stroke="#fff" stroke-linecap="round" stroke-linejoin="round" stroke-width="1.251"/>
    <path id="DZA2204" d="M277.917,75.733l4-.313.813.188.063.813.188.375.688.438,1.063.5.625.438.438.5.625.813.25.438.063.563-.063.375-.25.5-2.814,2.5-.313.375-.125.5.063.813.125,1.126.625,2,4.94,8.568-.063.375-.188.313-.313.25-1.876,1-.563.438-.876.063-1,.438-2.189,1.376-.125.063-6.566,4.065-.25.25-1.251,1.063-.313.125L271.538,107l-.625.063-.5.188-.438.25-.313.5-.25.563-.188.563-.25.313-.438.5-1.126.938-.876.938-.25.438-.313.625-.375,1-.5.063-.625.375-1.438,1.063-1.313.688-.375.063-.125-.125-.063-.313.125-.375-.063-.563-.063-1.063-.188-.688-.188-.188-.25-.188-.876-.188h-.75l-.375.063-.25.25-1.063.375-.563.188-.313.125-.25.188-.938,1.126-1.063,1.563-.25.5-.25.25-.438-.063-.375.063-.25.188-.063.25v1l-.188.188-.313-.188-.563-.625-.063-.313v-.313l.063-.25-.063-.438-.813-2.189-2.251-4.5-.188-.625-.188-.688.063-.438.375-.876,12.507-11.007.125-.188.188-.563.188-.625.063-.75-.063-.625-.188-.5-1.563-2.376-1-1-1.063-.813-.25-.25-.5-.375-.125-.188v-.438l-.063-.25-.125-.188-.313-.125h-.75l-.125-.063-.125-.25-.25-.188-.563-.188-.188-.125-.125-.188v-.75l-.188-.375-.438-.313-1.188-.5-.188-.125-.125-.188V83.55l.188-.313.313-.188h.188l.25.188h.188l.625-.313.75-.188.188-.125.188-.125.063-.188-.063-.188-.25-.25-.25-.188-.125-.25-.063-.313.125-1-.063-.25-.188-.25.063-.25.125-.25.063-.375.125-.188.125-.125.125-.063.25.063.313.125h.188l.188-.063.188-.125.188-.313v-.188l-.063-.188-.313-.25-.063-.25-.125-.625v-.813l.25-.438.25-.25h.188l.438-.063.313-.188.25-.25.25-.188h.25l.5.063.876-.188.188-.313.125-.5.188-.313.25-.125.188.063.188.25.188.375v.876l.063.438.188.188.313.25.438.063.25.188.5.5.625.438h.313l.25-.188.25-.563.375-.313.563-.063.813.188h.5l.438-.188.313-.063.375.188.375.438.5,1,.375.5.75.5.563.125.625-.188.5-.188.5-.188.938-.188,1.126-.5.5-.063,1.251.313.625.063.625-.188.563-.313.876-.688.438-.313Z" fill="#366127" stroke="#fff" stroke-linecap="round" stroke-linejoin="round" stroke-width="1.251"/>
    <path id="DZA2205" d="M331.011,58.222l1.063,4.44.063,4.127.188.25.25.25.5.313.313.063.563.125.188.188.188.313.438.876.188.5.063.563-.188.438v.438l.125.25.188.25,6.566,5.316.375.438.125.438-.25.313-.438.188-2.126.625-.125.063-.5,1-1.376,3.752-.625,1.063-2.126,2.376-.375,3.064-1.251.063-2.314.438-.563.188-.25.25-.25.5-.25.438-.438.5-2.814,1.626-3.252,2.814-.688.438-3.752,1.126-.813.563-1.126.938-1.626,1.814-.75,1.063-.5,1-.188.75-.313.938-.5.563-9.193,6.879-1.626-2.064-.625-1.5-.375-.625-.563-.313-1.188-.188-4.628.313-.438-.125-.188-.375v-.625l.438-4.378-.563-.625-1.251-.938-6.5-2.064.563-.438,1.876-1,.313-.25.188-.313.063-.375-4.94-8.568-.625-2-.125-1.126-.063-.813.125-.5.313-.375,2.814-2.5.25-.5.063-.375-.063-.563-.25-.438-.625-.813-.438-.5-.625-.438-1.063-.5-.688-.438-.188-.375-.063-.813-.813-.188-4,.313.625-1.751,1.563-2.126.813-1.939.375-.625.375-.563.438-.313.438-.25.438-.188.438-.125h.313l.438.063,1.126.438.438.188.375.125.438-.063.75-.375.5-.625,1.438-1.939.313-.563.063-.438-.188-.25-1.063-.625-.313-.313-.188-.25.188-.688.625.188.5.063.25-.063.25-.188.125-.438-.125-.563.063-.25.188-.313,2.126-2.314.313-.25.25-.063.313-.063.438.188.313.313.313-.063-.063-.313-.25-.25-.125-.25v-.25l.25-.125.876-.063,1.438-.938,1.126-.375,1.626-.938.625-.188,1.188-.063.688.876.313.125.375.063.375-.188.188-.375.25-1.126.188-.5.25-.438.438-.063.375.125.438.25.813.125,1.689.813.375.25.25.313.125.438.125.813.188.438.25.063.438-.125.563-.25.75-.125.563.375.938,1.126.813.563.688.125.438-.25.313-.75.313-.25.188.063.188.25.188.313.188.188.313.188.5.063,3.44-.125,2.752-.625,3.064-.125.313.188.125.375.063.375.063.25h.313l1-.375,1.438-.25,2.689.063Z" fill="#366127" stroke="#fff" stroke-linecap="round" stroke-linejoin="round" stroke-width="1.251"/>
    <path id="DZA2206" d="M314.814,44.652l2.752.813.938,1,.188.375.375.188.375-.25.5-.688.438-.125,1.5.438.5-.125.25-.25.125-.563.313-.375.688-.25,1.063.188,1.626.063,1.438-.25.75.063.75.188,1.438.876,2.064.813-2.126,4.565-.438.438-.563.25-.563.063-.5.188-.313.375-.125.375.063.563.25.625.625.75.5.313,1.126.5.313.375.25.375-.375,1.689-2.689-.063-1.438.25-1,.375h-.313l-.063-.25-.062-.375-.125-.375-.313-.188-3.064.125-2.752.625-3.44.125-.5-.063-.313-.188-.188-.188-.188-.313-.188-.25-.188-.063-.313.25-.313.75-.438.25-.688-.125-.813-.563-.938-1.126-.563-.375-.75.125-.563.25-.438.125-.25-.063-.188-.438-.125-.813-.125-.438-.25-.313-.375-.25-1.689-.813-.813-.125-.438-.25-.375-.125-.438.063-.25.438-.188.5-.25,1.126-.188.375-.375.188-.375-.063-.313-.125-.688-.876.438-1.939.063-.688.063-1.188.125-.563.188-.438.5-.125.438.063.813.313h.438l.438-.25.438-.438.813-1.063.25-.938-.125-.438.125-.438.25-.188.938-.625.125-.25-.25-.563.063-.188.188-.188,1.313-.5.188-.125.125-.188.125-.313.063-.688.125-.188.5-.5.375-.688.188-.063h.25l.75.688.188.188.063.25.125.563.188.313.188.188.813.5,1.063.5.375.063.813-.188Z" fill="#366127" stroke="#fff" stroke-linecap="round" stroke-linejoin="round" stroke-width="1.251"/>
    <path id="DZA2207" d="M408.12,27.579l-.375.5-.063.313-.063.438.188.438.438.625.5.438.5.063h.438l1.376.188h.438l.938-.125,1.438-.5h.438l.876.188.876.375.313.25.313.5.688,1.313.563.5.563.125.5-.188.438-.313.375-.125.313.188.125.25.125.5.063.5.125.438.25.063L421,34.4l.313-.313.313.063.188.25v.625l-.063.438-.25.563-.5.625-.5.25-.438.125-.25.188-.125.25.125.5.25.75v.313l-.313.5-.125.313-.063.75-.125.625-.688,1.251-.25.688-.188,1.063-.062.876.125,1.563v.5l-.188.313-.375.125-1.313.063-.375.125-.188.375-.125.313v1.626l-1.188-.063-.5-.188-.688-.438-.688-.625-.25-.188-.5-.125-.313-.063-.375-.25-.25-.25-.688-.938-.313-.313-.313-.125h-.5l-1.063.25-1.188.063-.438.063-.938.25L403.3,48.216l-.625.188-.625.063-3.064-.063-.5-.125-.5-.188-.5-.625-.125-.438.125-.375.938-.813.25-.375.125-.375.188-.563.188-.25.625-.063.313-.125.125-.125v-.25l-.125-.25-.313-.438-.125-.375-.25-.688-.125-.625-.125-.25-.125-.25-.188-.125h-.375l-.625.25-1.126.813-.625.313-.75.063-1-.125-3.94-.876-.938.125-.438.188-.188.188-.063.125-.125.188h-.625l-.75-.188-.25-.625-.125-.188-.438-.25.25-.625.188-.188.938-.813.438-.563.313-.75.375-1.376.25-.625.438-.563,1.376-1.188.688-.813,1.438-2.251,1.5-1.939.625.813.438,1.939.5,1.126.5.438.625.125,2-.125.438-.063,1.063-.438,1.814-.313.25-.188.125-.375-.125-.438-.063-.438v-.5l.125-1.126.125-.313.25-.25,1.063-.5.438-.313.375-.375.813-1.313.438-.375.313-.125h.313l.188.125.188.25.438,1,.188.313Z" fill="#366127" stroke="#fff" stroke-linecap="round" stroke-linejoin="round" stroke-width="1.251"/>
    <path id="DZA2208" d="M427.068,16.885l.25,1.188-.125.375-.125.188v.188l.125.125.75.25.563.438-.438.688-.125.438v.5l.063.563.125.625v.25l-.063.25-.25.25-.813.563-.563.25-1.126.25-1,.5-.25.188-.188.188-.188.375-.125.438.063.438-.125.5-.188.313-.813.313-.625.063-1-.188-.5-.313-.563-.563V26.2l.188-.876v-.375l-.125-.438-.188-.375-.5-.688-.063-.188.188-.188.313-.25.25-.25.125-.313v-.25l-.188-.25-.938-.75-.438-.375-.188-.188-.313-.125-.75-.188h-.313l-.438.125-.375.438-.062.375-.063.5-.125.313-.313.25-.5.063-.876-.25-1.313.75-.188.25-.063.125.188.313.75.563.25.25v.25l-.188.25-.563.313-.313.375-.125.375v.375l-.125.375-.188.313-.438.375-.438.25-.625.188-.5.063-2.126-.125-.188-.313-.438-1-.188-.25-.188-.125h-.313l-.313.125-.438.375-.813,1.313-.375.375-.438.313-1.063.5-.25.25-.125.313-.125,1.126v.5l.063.438.125.438-.125.375-.25.188-1.814.313-1.063.438-.438.063-2,.125-.625-.125-.5-.438-.5-1.126L395.3,29.83l-.625-.813.313-.313.375-.25.375-.188.188-.188.063-.25-.125-.563.063-.5.063-.375.125-.25v-.313l-.062-.375-.625-.75-.313-.625,1.689-.563.813-.5,2.251-2.564.313-.438.375-1.063,1.251-2,.188-.5.063-.5-.188-.313-.188-.188-.313-.125-.625-.25-.25-.188-.188-.313-.063-.25.125-.5.25-.25.375-.25.438-.063.313.063.75.313.313.063.313-.188.125-.375.188-.813.063-.375-.063-.375-.062-.25-1.251-1.876-.188-.438-.063-.625-.063-.25h.938l2.251.188,2.189-.25.5.063,4.94,2.126.563.5.125.25.375.125.438-.063.313.063.188.188.25.5.125.125.5.25.625.188.625.063h.563l-.625,1.814.188.625.813.688,3.565,1.814,1,.25,1.063.063,2.064-.313Z" fill="#366127" stroke="#fff" stroke-linecap="round" stroke-linejoin="round" stroke-width="1.251"/>
    <path id="DZA2209" d="M368.1,15.947l.938,1.751.063.375v.313l-.313.25-.188.188-.5.813-.25.313-.375.188-.375.188-3.252.625-.438.188-.313.313-.188.313-.313.75-.375.938-1.126.25-.75.063-.5.25-.25.25-.188.438-.188.438-.625.563-.75.438-1.063.375-1.5.938-.813.688-.5.313-.375.125-.438-.063-.438-.25-.5-.438-.313-.563-.25-.563-.25-.375-.438-.063-.313.25-.688.75-.438.375-.5.313-.625.188h-.563l-.688-.125-3,.25-.688-.063-.25-1.126-.125-.125-.188-.063-.75.438-.876.188-1.438.563-.563.063-.25-.25-.063-.438-.125-.188-.313-.125-.313-.375-.313-.75.25-1.438.188-.188.25-.25h.25l.876.25.25.063,1.126-.063.625-.125.313-.25.25-.375.125-.625.25-.438.5-.313,1.376-1.313.563-.438.5-.313.563-.188,1.876-.938.438-.375.125-.313.063-.25.125-.25.313-.125,3.44.125.438-.125.25-.125.188-.25.375-.188.625-.125.188-.125.125-.125.063-.188-.063-.25-.25-.75v-.5l.876.25.25.438v.625l.25.563.375.25.438.125h.375l.375-.125.375-.188,1.438-.25,1.438-.75,1.751-.813,1.063-.188.938-.063.5.125.313.25.25.375,1.438.625.313.063.25-.125.625-.375Z" fill="#366127" stroke="#fff" stroke-linecap="round" stroke-linejoin="round" stroke-width="1.251"/>
    <path id="DZA2210" d="M375.85,19.011l.876,1.5.938.75.75.563,1,1,1.126.688,1.438.5,7.567.313.5-.125.938-.438.438.063,1.313.375h.5l1.313-.313.563.188.313.625.625.75.063.375v.313l-.125.25-.063.375-.063.5.125.563-.063.25-.188.188-.375.188-.375.25-.313.313-1.5,1.939-1.438,2.251-.688.813-1.376,1.188-.438.563-.25.625-.375,1.376-.313.75-.438.563-.938.813-.188.188-.25.625-1.188,3.064-.188,1.438.063.5v.563l-.188.375-.375.125-.5-.188-1.188-.625-.375-.063H382.1l-.438.25-1,.625-.625.188h-.625l-.625-.25-.438-.438-.313-.375-.313-.313-.313-.188-.375-.125-.375-.188-.625-.625-.125-.063-.876-.063-2.376.313-1.5-2.814-.438-1.939-.063-1.063v-1l.375-3.252V33.52l-.125-.688-.5-1.563-.063-.625.063-.375.125-.25.563-.5.188-.375-.062-.438-.5-.938-.063-.625v-.813l-.188-.375-.313-.25-.375-.063-.688-.313h-.313l-.25.125-1,.375-.313.25-.375.5-.375-.063-.563-.375-.688-.938-.563-.625-.625-.375-1.814-.75.375-.938.313-.75.188-.313.313-.313.438-.188,3.252-.625.375-.188.375-.188.25-.313.5-.813.188-.188.313-.25v-.313l-.063-.375-.938-1.751,1.876.438.876-.063,1.188-.5.5-.125.375.063.375.063.563.25.25.188.125.25.063.25-.125.375-.876,1.126-.188.438-.125.313.125.25.25.125h.5l2-.375Z" fill="#366127" stroke="#fff" stroke-linecap="round" stroke-linejoin="round" stroke-width="1.251"/>
    <path id="DZA2211" d="M462.152,87.115h.875l1.5-.438.5-.063h.688l.25.125.125.125.25.375.438,1.188.188.625.063.5-.25,1.5-.062,1.251-.125,1.313-.5,2.314-.438,1.5-.125.313-.125.5v.375l.25,1.939-.25,1.313-1.063.938-1.063.625-1.063.438-1,.188h-.938l-.625-.125-.438-.125-.625-.25-.438-.375-.313-.375-.25-.375-.25-.313-1.751-.813-4.815-1.376h-.563l-5.879,1.251-15.759-2-2.877-.938-1.876-.876-.25.063-.188.188-.188.5.063.563-.063.5-.375.375-.5.313-1.251.5-.375.188-.313.313-.25.375-.188.438-.125.438-.062.5.125.25.125.188,2.126,1.876,1.126,1.376.938,1.376.313.625.5,1.251.313,1.313.063.813.063,1.814-1.188,7.755-.25.813-.375.688-1.313,1.376-1.563,2.064-2.939,5-21.638-12.945-1.313-1.063-.625-.688-.188-.375-.25-.938-.563-3.752-.125-.375-.188-.375-.313-.25-1-.25-.625-.25-.5-.375-.188-.313-.063-.25.188-.563v-.375l-.062-.938,2.189-.125.375-.125.438-.188.125-.25-.063-.438-.25-.375-.375-.438-.375-.438-.438-1.126-.75-1.063-.375-.688-.688-3.252-.188-.438-.25-.25-.188-.313-.062-.563.375-.688,1.126-1.313.375-.688.375-.938.438-.688,2.251-2.376.5-.688.938-1.376.563-.625.625-.375.563-.063h.5l.938.188h.375l.438-.125,1.251-.375,1.376-.188,2.627-.938.438-.063.813.125.5-.063.813-.25.375-.063.5.125h.5l3.064-.75.813-.375,1.251-.938.813-.938.375-.688.063-.688-.125-5.378,1.063.063,2.064,1.063,1.313.813,1.5.375,1.126.063,1-.063.75-.375.813-.5.625-.313.625-.188,3.5-.188.688-.125.438-.188.438-.313.313-.188.625-.25.313-.25.188-.313-.062-.438-.063-.25-.188-.375-.125-.25-1.251-1.126-.25-.438.125-.25,2.189-.563,2.627-1.626,1.376-.688,1.876-.688h.313l.313.125,1.063.938,2.564,1.063h.688l.438.063.188.125.063.375-.25.438-.313.375-1.188,1.063-.375.438-.125.313.375,1.376-.063.563-.5,1.126V77.3l.375.563.75.625.313.375.563.5h.563l.375-.25.188-.125.438-1.376.25-.5.25-.25.313-.063.375.063.375.188.313.313.188.438.125.438.25.688.25.125.438.188h.563l.688-.313h.125l.563.063.125-.188.25-.625.313-.375.876-.5.438-.188.5-.063h.75l1.563-.313.688-.25.563-.063.5.125.563.688.313.5.063.563-.125.313-.25.625-.062.375-.063.563v1.5l-.375,2V84.3l.25.625.375.5.5.438.938,1.126.25.25.438.188.563.125.5.063.688-.188.25-.313Z" fill="#366127" stroke="#fff" stroke-linecap="round" stroke-linejoin="round" stroke-width="1.251"/>
    <path id="DZA2212" d="M365.156,51.093l1.751,2.939.375.5,2.189,1.814.438.25.688.563,3.627,3.44.313.375.188.5.063.688-.062.625-.188.563-.188.438-.25.313-.25.313-.188.313-.125.375.125.563.25,1.438v.5l-.125.438-.313.375-5.441,4.69.063.375,1.376,2.939.313.5.25.063h.313l1.126-.563.375-.063.25.125v.375l-.125.313-.25.375-.313.313-.25.375-.188.313v.375l.188.438.375.938.125.375.063.375-.188.75v.375l.125.5.125.438.313.563.438.375.625.375.188.313.063.375.063.438.125.563.375.563.5.25h.563l1-.25h.5l4.565,1,.25.188.125.188.063.438-.125,1.126.063.688.063.688,1.313,4.69.438,1.063,1.5,2.126.25.625.063.625v.688l-.063.688.063.563.25.625.625.688,2.627,1.751.438.5.813,1.188.5.313.063.938v.375l-.188.563.063.25.188.313.5.375.625.25,1,.25.313.25.188.375.125.375.563,3.752.25.938.188.375.625.688,1.313,1.063L417.813,131.2l-3.44,4.69-.688,3.815-.938,3.44.75,14.446-24.265-6.754-.313-1.188-1.438-3.877-1-2-.813-1-.876-1-11.757-10.319-12.32-13.883-2.189-3.815-.313-.876-.25-.813-.375-2.689-.75-2.126-.313-.375-.688-.313H353.9l-.25-.125-.688-.438-.375-.063-.438.063-.5.313L349.4,108.44l-.375.438-.25.5-.25.876-.313.313-.438.25-1.438.5-2.689.438-.375.125-.125.188-.125.313-.062.375.125,3.94-.062,1.126-.125.876-.125.188-.188.063h-1.063l-2.376-.313h-.876l-.438-.25-.25-.438-.25-2.064v-.375l.188-.876.625-1.939.063-.625-.125-.563-.375-.876-.375-.75-.438-.625L335.764,108l-.375-.625-.25-.563-.5-3.189-.25-.876-.313-.625-.375-.438-.625-.625-.375-.5-.313-1-.063-1.313.25-2.064.25-1.188.438-.813.813-.938.25-.563.188-.438-.25-2,.375-3.064,2.126-2.376.625-1.063,1.376-3.752.5-1,.125-.063,2.126-.625.438-.188.25-.313-.125-.438-.375-.438-6.566-5.316-.188-.25-.125-.25v-.438l.188-.438-.063-.563-.188-.5-.438-.876-.188-.313-.188-.188-.563-.125-.313-.063-.5-.313-.25-.25-.188-.25-.063-4.127,5.816-2,1.5-.25h.063l2.314,1.814.438.188.5.188.5-.063.563-.125.438-.25.5-.438.313-.5.563-.876.125-.25.313-.438.563-.5,3.565-2.877.313-.375.188-.313.063-.438v-.5l-.125-1.126v-.313l.063-.75-.063-.313-.25-1.063-.125-.563v-.563l.188-.375.25-.188.375-.063.563-.063.876-.188.688.125.375.375.188.375.188.876.188.438.188.375.625.375.125.25.125.313.25,1,.25.313.5.125,2.939-.5.563-.313.313-.313.25-.563.438-1.939.313-.625.438-.438.313-.063.25.188.375.75.25.438.375.313.438.188.438.063,1.313-.125Z" fill="#366127" stroke="#fff" stroke-linecap="round" stroke-linejoin="round" stroke-width="1.251"/>
    <path id="DZA2213" d="M372.661,44.652l.063.5.125.75-.063.375-.188.313-.438.625-.063.625-.188.25-1.188.438-.688.563-.125.438.063.563.375.876.125.563.063.563-.062,1.188-.125.5-.25.25-.563-.5-.375-.375-.25-.5-.313-.625-.375-.688L366.782,49.4l-.375-.25-.313-.125-.313.25-.188.188-.438,1.626-1.313.125-.438-.063-.438-.188-.375-.313-.25-.438-.375-.75-.25-.188-.313.063-.438.438-.313.625-.438,1.939-.25.563-.313.313-.563.313-2.939.5-.5-.125-.25-.313-.25-1-.125-.313-.125-.25-.625-.375-.188-.375-.188-.438-.188-.876-.188-.375-.375-.375-.688-.125-.876.188-.563.063-.375.063-.25.188-.188.375v.563l.125.563.25,1.063.063.313-.063.75v.313l.125,1.126v.5l-.063.438-.188.313-.313.375-3.565,2.877-.563.5-.313.438-.125.25-.563.876-.313.5-.5.438-.438.25-.563.125-.5.063-.5-.188-.438-.188-2.314-1.814h-.063l-1.5.25-5.816,2-1.063-4.44.375-1.689-.25-.375-.313-.375-1.126-.5-.5-.313-.625-.75-.25-.625-.063-.563.125-.375.313-.375.5-.188.563-.063.563-.25.438-.438,2.126-4.565,1.313-1.814,1.939-1.814.375-.563.25-.5.188-.876.188-.438.188-.375.25-.25,3.189-2.064.25-.5.375-.938.438-.688.938-.938.125-.375v-.313l-.188-.125-.25-.063h-1l-.563-.25H340.7l-.188.125-.688.563-.313.125-.125-.125-.25-.313-.125-.313-.188-.313-.5-.438-.125-.438v-.625l.125-.313.188-.25.375-.438.313-.375.188-.188.25-.125,1.876-.063.5-.188.5-.313.563-.563.25-.375.063-.313.063-.438.688.063,3-.25.688.125h.563l.625-.188.5-.313.438-.375.688-.75.313-.25.438.063.25.375.25.563.313.563.5.438.438.25.438.063.375-.125.5-.313.813-.688,1.5-.938,1.063-.375.75-.438.625-.563.188-.438.188-.438.25-.25.5-.25.75-.063,1.126-.25,1.814.75.625.375.563.625.688.938.563.375.375.063.375-.5.313-.25,1-.375.25-.125h.313l.688.313.375.063.313.25.188.375v.813l.063.625.5.938.063.438-.188.375-.563.5-.125.25-.063.375.063.625.5,1.563.125.688v1.063l-.375,3.252v1l.063,1.063.438,1.939,1.5,2.814Z" fill="#366127" stroke="#fff" stroke-linecap="round" stroke-linejoin="round" stroke-width="1.251"/>
    <path id="DZA2214" d="M415.812,50.093l.125.375.188.188.438.375.625.438,2.126.876.188.25.188.75.5.5.813.5,4.628,1.126-3.5,3.127-.876.5-.75.25-1.126.688-.5.125-.5-.188-.5-.25-.563-.125H415.5l-.688.063-.5.188-.188.188-.375.438-.75.375-.438-.063-.375-.188-.125-.125-.563-.688-.25-.188-.25-.188h-.25l-.25.063-.063.25v.313L411,62.225l.188,1.313v1.376l-.062.938-.313,2-.25.625-.5.75-.876,1.063-1.126,1-.5.563-.188.438.063.25.125.25.188.188.313.125,2.251.188.813.125.75.25.625.313.688.438.438.563.375.563.25.25.313.063.438.063.313-.063.125,5.378-.063.688-.375.688-.813.938-1.251.938-.813.375-3.064.75h-.5l-.5-.125-.375.063-.813.25-.5.063-.813-.125-.438.063-2.627.938-1.376.188-1.251.375-.438.125h-.375l-.938-.188h-.5l-.563.063-.625.375-.563.625-.938,1.376-.5.688-2.251,2.376-.438.688-.375.938-.375.688-1.126,1.313-.375.688.063.563.188.313.25.25.188.438.688,3.252.375.688.75,1.063.438,1.126.375.438.375.438.25.375.063.438-.125.25-.438.188-.375.125-2.189.125-.5-.313-.813-1.188-.438-.5-2.627-1.751-.625-.688-.25-.625-.062-.563.063-.688v-.688l-.062-.625-.25-.625-1.5-2.126-.438-1.063-1.313-4.69-.063-.688-.062-.688.125-1.126-.062-.438-.125-.188-.25-.188-4.565-1h-.5l-1,.25h-.563l-.5-.25-.375-.563-.125-.563-.063-.438-.063-.375-.188-.313-.625-.375-.438-.375-.313-.563-.125-.438-.125-.5V81.8l.188-.75-.063-.375-.125-.375-.375-.938-.188-.438v-.375l.188-.313.25-.375.313-.313.25-.375.125-.313v-.375l-.25-.125-.375.063-1.126.563h-.313l-.25-.063-.313-.5L368.1,73.482l-.063-.375,5.441-4.69.313-.375.125-.438v-.5l-.25-1.438-.125-.563.125-.375.188-.313.25-.313.25-.313.188-.438.188-.563.063-.625-.063-.688-.188-.5-.313-.375-3.627-3.44-.688-.563-.438-.25-2.189-1.814-.375-.5-1.751-2.939.438-1.626.188-.188.313-.25.313.125.375.25,1.438,1.939.375.688.313.625.25.5.375.375.563.5.25-.25.125-.5.063-1.188-.063-.563-.125-.563-.375-.876-.062-.563.125-.438.688-.563,1.188-.438.188-.25.063-.625.438-.625.188-.313.063-.375-.125-.75-.063-.5,2.376-.313.876.063.125.063.625.625.375.188.375.125.313.188.313.313.313.375.438.438.625.25h.625l.625-.188,1-.625.438-.25h.438l.375.063,1.188.625.5.188.375-.125.188-.375v-.563l-.063-.5.188-1.438,1.188-3.064.438.25.125.188.25.625.75.188h.625l.125-.188.063-.125.188-.188.438-.188.938-.125,3.94.876,1,.125.75-.063.625-.313,1.126-.813.625-.25h.375l.188.125.125.25.125.25.125.625.25.688.125.375.313.438.125.25v.25l-.125.125-.313.125-.625.063-.188.25-.188.563-.125.375-.25.375-.938.813-.125.375.125.438.5.625.5.188.5.125,3.064.063.625-.063.625-.188,2.314-1.063.938-.25.438-.063,1.188-.063,1.063-.25h.5l.313.125.313.313.688.938.25.25.375.25.313.063.5.125.25.188.688.625.688.438.5.188,1.188.063Z" fill="#366127" stroke="#fff" stroke-linecap="round" stroke-linejoin="round" stroke-width="1.251"/>
    <path id="DZA2215" d="M436.386,20.95l.5.5.125.25.25.375.125.438v.625l-.125,1.126v.563l.313.5.438.25.625.063h.563l.563.063.438.375.313.688.063,1.438-.063,2.376-.188.938v.688l.375.625.438.125h.563l.375.063.25.375-.125.625-.25.438-.375.25-.25.313v.438l.313.563.375.375.188.313.063.25V37.4l.125.25.375.438.5.25.375.5.188.75-.313,3.627.188.563-.063,1.188-.876.625-.063.125v.313l.125.313v.5l-.25.125-.563-.188-1.313-1-.688-.5-1-.313-.688.063-.688.25-.938.625-.438.313-.313.375-.25.438-.063.375.125.375.313.188.5.188.375.313.188.375L436.7,49.9l-.313.438-.438.063-1.188-.5-.375-.25-.313-.313-.313-.188-.75-.313-.563-.313-.5-.125-.438.188-.25.375-.188.5-.188.5-.563.25-1.563,1.126-.188.313-.188.313-.063.438-.063,1.126-.188.563-.25.5-.438.563-.438.25-.438.125-.876-.063L421,54.345l-.813-.5-.5-.5-.188-.75-.188-.25-2.126-.876-.625-.438-.438-.375-.188-.188-.125-.375V48.467l.125-.313.188-.375.375-.125,1.313-.063.375-.125.188-.313v-.5l-.125-1.563.063-.876.188-1.063.25-.688.688-1.251.125-.625.063-.75.125-.313.313-.5v-.313l-.25-.75-.125-.5.125-.25.25-.188.438-.125.5-.25.5-.625.25-.563.063-.438V34.4l-.188-.25-.313-.063L421,34.4l-.188.125-.25-.063-.125-.438-.063-.5-.125-.5-.125-.25-.313-.188-.375.125L419,33.02l-.5.188-.563-.125-.563-.5-.688-1.313-.313-.5-.313-.25-.876-.375-.876-.188h-.438l-1.438.5-.938.125h-.438l-1.376-.188h-.438l-.5-.063-.5-.438-.438-.625-.188-.438.063-.438.063-.313.375-.5,2.126.125.5-.063.625-.188.438-.25.438-.375.188-.313.125-.375v-.375l.125-.375.313-.375.563-.313.188-.25V24.2l-.25-.25-.75-.563-.188-.313.063-.125.188-.25,1.313-.75.876.25.5-.063.313-.25.125-.313.063-.5.063-.375.375-.438.438-.125h.313l.75.188.313.125.188.188.438.375.938.75.188.25v.25l-.125.313-.25.25-.313.25-.188.188.063.188.5.688.188.375.125.438v.375l-.188.876v.313l.563.563.5.313,1,.188.625-.063.813-.313.188-.313.125-.5-.063-.438.125-.438.188-.375.188-.188.25-.188,1-.5,1.126-.25.563-.25.813-.563.25-.25.063-.25v-.25l-.125-.625-.063-.563v-.5l.125-.438.438-.688.688.25.188.688v.438l.188.563.313.313.313.188.375.063h.313l.375-.125.25-.188.5-.5.25-.188.438-.188.313.063.75.563.438.063.375.063,1.814-.75Z" fill="#366127" stroke="#fff" stroke-linecap="round" stroke-linejoin="round" stroke-width="1.251"/>
    <path id="DZA2216" d="M448.894,45.527l3.815,1.251h.563l.625-.063.438-.563.313-.125.313.063.813.813.438.25.5.125,1.5.125.25.125.313.25.125.438v.375l-.063.438v.438l.25.5.438.063.563-.125,1.814-.688.688-.063h.688l.688.25,1.5,1.126,2.126,3.064.188,1.814.375,1.626-.063.563-.125.5-.438.938-.313.438-.438.438-.625.313-1.626.563-.563.25-.625.438-.5.5-.563.813-.188.5.063,1.126-.125,1.251v.563l.125.375.313.188.438-.125h.25l.188.125v.438l-.25.5-1.126,1.188-.375.625-.375,2.5-1.126,2-.188.5-.063.438-.063,1.376.063.625.188.563.876,1.438,1.126,2.439.188.563.25.625-.125.313-.625,1.313-.125.625v.5l.125.5.25.876.188.375-.25.313-.688.188-.5-.063-.563-.125-.438-.188-.25-.25-.938-1.126-.5-.438-.375-.5-.25-.625v-.625l.375-2v-1.5l.063-.563.063-.375.25-.625.125-.313-.063-.563-.313-.5-.563-.688-.5-.125-.563.063-.688.25-1.563.313h-.75l-.5.063-.438.188-.876.5-.313.375-.25.625-.125.188-.563-.063h-.125l-.688.313h-.563l-.438-.188-.25-.125-.25-.688-.125-.438-.188-.438-.313-.313-.375-.188-.375-.063-.313.063-.25.25-.25.5-.438,1.376-.188.125-.375.25h-.563l-.563-.5-.313-.375-.75-.625-.375-.563v-.625l.5-1.126.063-.563-.375-1.376.125-.313.375-.438,1.188-1.063.313-.375.25-.438-.063-.375-.188-.125-.438-.063H443.2l-2.564-1.063-1.063-.938-.313-.125h-.313l-1.876.688-1.376.688-2.627,1.626-2.189.563-.125.25.25.438,1.251,1.126.125.25.188.375.063.25.063.438-.188.313-.313.25-.625.25-.313.188-.438.313-.438.188-.688.125-3.5.188-.625.188-.625.313-.813.5-.75.375-1,.063-1.126-.063-1.5-.375-1.313-.813-2.064-1.063-1.063-.063-.313.063-.438-.063-.313-.063-.25-.25-.375-.563-.438-.563-.688-.438-.625-.313-.75-.25-.813-.125-2.251-.188-.313-.125-.188-.188-.125-.25-.063-.25.188-.438.5-.563,1.126-1,.876-1.063.5-.75.25-.625.313-2,.063-.938V63.538L411,62.225l-.563-2.189v-.313l.063-.25.25-.063H411l.25.188.25.188.563.688.125.125.375.188.438.063.75-.375.375-.438.188-.188.5-.188.688-.063h1.814l.563.125.5.25.5.188.5-.125,1.126-.688.75-.25.876-.5,3.5-3.127.876.063.438-.125.438-.25.438-.563.25-.5.188-.563.063-1.126.063-.438.188-.313.188-.313,1.563-1.126.563-.25.188-.5.188-.5.25-.375.438-.188.5.125.563.313.75.313.313.188.313.313.375.25,1.188.5.438-.063.313-.438.438-1.063-.188-.375-.375-.313-.5-.188-.313-.188-.125-.375.063-.375.25-.438.313-.375.438-.313.938-.625.688-.25.688-.063,1,.313.688.5,1.313,1,.563.188.25-.125v-.5l-.125-.313v-.313l.063-.125.876-.625,1.188.375.375.188,1.188.25,2.5-.25Z" fill="#366127" stroke="#fff" stroke-linecap="round" stroke-linejoin="round" stroke-width="1.251"/>
    <path id="DZA2217" d="M472.721,25.578l.313.313.375.876.188.563.063.438.25.375.563.375.125.188.063.375v1l.25.5.625.25.25.25.188.375.063,1.438-.125.938-.125.688-.876,1.5-.813.188-.625.063-.438.188-.876.876-.625.438-.313-.063-.125-.313.063-.563-.188-.5-2.814-1.689-.438-.063-.375.188-.25.25-.375.188-.313.188-1.5.375-.5.25-.563.375-1.438.625-.188.5-.188.188h-.25l-.125-.063-.75-1-.938-1.063.25-1.438-.125-.375-1.563-2.251L455.773,28.7l-.438-.188-.876.063-.375-.188-.125-.375.125-.438.25-.313.563-.438.625-.313.25-.063.688-.25,2-.25.375-.25.125-.438-.125-.563-.375-1-.063-.313.063-.188.125-.125.438-.25.25-.375.125-.625.188-1.689h1.063l1.251.25.563-.125,1.626-1.251h.313l.188.188.125.313.188.313,1.626.75,1.313.375,3.5-.188h.563l.25.125v.25l-.063.375-.188.313-.25.125-.25-.063-.375-.188-.375-.063-.313.063-.438.188-.125.125-.063.25.063.75v.313l-.063.188-.375.313-.188.25-.063.25.125.25.313.125.438.063.5.25,2.251.563Z" fill="#366127" stroke="#fff" stroke-linecap="round" stroke-linejoin="round" stroke-width="1.251"/>
    <path id="DZA2218" d="M494.234,16.885l1.438.25.313.188,1,.876.313.438.188.375.188.563.25.375.375.313,5.441,2.314.313.188.125.25.125.313.125.313-3.5,1.939-.876.063-1.251-.375h-.188l-.062.25.438,1.126.063.313.063.813.188.375.375.563.125.563-.125.75-.5.375-.563.25-.5.125-1.063.063-3,1.563-3,1-.313.25-.438.625-.375.188-.375.125h-.625l-1.939.438-.375.25-.313.375-.375.813-.188.313-.313.188-.375.063h-.625l-1.063-.563-1.5-.188-.5.125-.313.188-.125.375-.063,1.126-.375.688-.625.438-1.251.625-.813.25-.813.125-.375-.188-.188-.313-.062-.313-.125-.313-.313-.313-.375-.313-.25-.375-.125-.5-.125-.5-.063-.813-.062-.25.876-1.5.125-.688.125-.938-.063-1.438-.188-.375-.25-.25-.625-.25-.25-.5v-1L474.6,28.7l-.125-.188-.563-.375-.25-.375-.063-.438-.188-.563-.375-.876-.313-.313.688-1.251.75-.438,2.314-.688.25-.125.125-.125.063-.188-.062-.313-.125-.25v-.375l.188-.5.75-.938.688-.563,3.377-1.814.813-.313.75-.188h.5l.313-.188.188-.25.125-.876.063-.438.375-.5.25-.188.563-.375.5-.188,2.251,1.251.188.375.25.5v.813l.125.375.125.188.5.125.688.375.438.188.438.125h.438l.876-.125.313-.125.313-.125.25-.25.25-.313.625-1Z" fill="#366127" stroke="#fff" stroke-linecap="round" stroke-linejoin="round" stroke-width="1.251"/>
    <path id="DZA2219" d="M491.044,62.35l-.75.75-2.814,1.126-.438.438v.375l.188.438v.563l-.188,1.251.063.5.063.563v.625l-.375.75-.063.563.125.563.188.625.125.688-.125,1-.313.75-.438.688-1.814,2-1.063,1.5-.938.876-1,1.5-.188.438-.063.313.063.375.063.375v.438l.063.375.188.313.25.5.063.375.125.313.25.688.125.125h.188l.25-.125.063-.188v-.188l-.188-.5v-.625l-.125-.375-.062-.125-.25-.438V82.3l.063-.688.25-.5.063-.125.563-.25.188-.188.313-.625.188-.125.125-.063.5.25.563.063.375.125.25.313.125.375-.063.813.063.438.063.313.25.5.125.5-.125,2,.063.375.438,1.376.063.563V88.3l-.125.688-.688,1.689-.563,1.063-1.126,1.626-.563,1.376-.125.188-.375.375-.313.563-.563,1.689-.313,1.188-.5,3.377-.688,2.689-2.126,4.94-3.565-.625-1.689-.563-6.566-3.877-.876-1-.563-1.814.25-1.313-.25-1.939v-.375l.125-.5.125-.313.438-1.5.5-2.314.125-1.313.063-1.251.25-1.5-.063-.5-.188-.625-.438-1.188-.25-.375-.125-.125-.25-.125h-.688l-.5.063-1.5.438h-.876l-.188-.375-.25-.876-.125-.5v-.5l.125-.625.625-1.313.125-.313-.25-.625-.188-.563L460.9,78.985l-.876-1.438-.188-.563-.063-.625.063-1.376.063-.438.188-.5,1.126-2,.375-2.5.375-.625,1.126-1.188.25-.5V66.79l-.188-.125h-.25l-.438.125-.313-.188-.125-.375v-.563l.125-1.251-.063-1.126.188-.5.563-.813.5-.5.625-.438.563-.25,1.626-.563.625-.313.438-.438.313-.438.438-.938.125-.5.063-.563-.375-1.626-.188-1.814.563.876.375.75.313.313.438.313.813.125.625.063,3.627-.5.313.063.375.25.625,1.251.438.438,1,.063.563-.313.5-.5.313-.5.375-.25.313-.063,1.689.25h.188l.125-.125.125-.375h.188l.625.063.563.125.625.313.438.438.25.75-.063,1.313.188.375.5-.063.313-.313.313-.563.25-.375.313-.188.438.188.438.313.75,1.063.375.125.25-.125.25-.188h.25l.25.25.313,1.063.125.313.25.313.876.563.688.876Z" fill="#366127" stroke="#fff" stroke-linecap="round" stroke-linejoin="round" stroke-width="1.251"/>
    <path id="DZA2220" d="M458.149,20.075l1.438.063-.188,1.689-.125.625-.25.375-.438.25-.125.125-.063.188.063.313.375,1,.125.563-.125.438-.375.25-2,.25-.688.25-.25.063-.625.313-.563.438-.25.313-.125.438.125.375.375.188.876-.063.438.188,2.752,2.814,1.563,2.251.125.375-.25,1.438h-.25l-.5.125-.438.125-.938.563-.75.688-.438.563-.188.75.063,1.188-.063.563-.125.563-.563.563-.813.625-1.563.688-1.939.563-1.376.313-.563.188-.375.188-.188.375-.125.313.063,1-2.5.25-1.188-.25-.375-.188-1.188-.375.063-1.188-.188-.563.313-3.627-.188-.75-.375-.5-.5-.25-.375-.438-.125-.25V36.96l-.063-.25-.188-.313-.375-.375-.313-.563v-.438l.25-.313.375-.25.25-.438.125-.625-.25-.375-.375-.063h-.563l-.438-.125-.375-.625v-.688l.188-.938.063-2.376-.063-1.438-.313-.688-.438-.375-.563-.063h-.563l-.625-.063-.438-.25-.313-.5v-.563l.125-1.126v-.625l-.125-.438-.25-.375-.125-.25-.5-.5,1.188-.25.375.063.563.125.438.25.75.25.688.063,1.063-.125.625-.188.313-.313.188-.438.313-.438.438-.313,1.126-.5.625-.063.438.063,1.063.313,1.626.125,1.188.313.938.063h.563l.313-.125.375-.438.188-.25.688-.25.813-.5h.25l.188.063.188.5.125.188.25.125,3.877.813Z" fill="#366127" stroke="#fff" stroke-linecap="round" stroke-linejoin="round" stroke-width="1.251"/>
    <path id="DZA2221" d="M474.91,36.022l.063.25.063.813.125.5.125.5.25.375.375.313.313.313.125.313.063.313.188.313.375.188.813-.125.813-.25,1.251-.625.625-.438.375-.688.063-1.126.125-.375.313-.188.5-.125,1.5.188,1.063.563v1.814l1.313,2.877.876,1.313.563.563,1.063,1.251.5.375.438.25,1.251.313.438.313.313.438.438,1.251.438.25,1.939.063.563-.125.25-.313.063-.438v-.438l.188-.313.5-.5.25-.438.188-.563.313-.438.5-.25h.75l.563.313.563.313,2.064,2.189-.125.563v.375l.125.438-.125.313-1.126,2.752-.063,1,.063.813.5,1.563.125.688-.125.563-.5.313-.5.188-.5.125-.5.188-6.942,5.378-.688-.876-.876-.563-.25-.313-.125-.313-.313-1.063-.25-.25h-.25l-.25.188-.25.125-.375-.125-.75-1.063-.438-.313-.438-.188-.313.188-.25.375-.313.563-.313.313-.5.063-.188-.375.063-1.313-.25-.75-.438-.438-.625-.313-.563-.125-.625-.063h-.188l-.125.375-.125.125h-.188l-1.689-.25-.313.063-.375.25-.313.5-.5.5-.563.313-1-.063-.438-.438-.625-1.251-.375-.25-.313-.063-3.627.5-.625-.063-.813-.125-.438-.313-.313-.313-.375-.75-.563-.876-2.126-3.064-1.5-1.126-.688-.25h-.688l-.688.063-1.814.688-.563.125-.438-.063-.25-.5v-.438l.063-.438v-.375l-.125-.438-.313-.25-.25-.125-1.5-.125-.5-.125-.438-.25-.813-.813-.313-.063-.313.125-.438.563-.625.063h-.563l-3.815-1.251-.062-1,.125-.313.188-.375.375-.188.563-.188,1.376-.313,1.939-.563,1.563-.688.813-.625.563-.563.125-.563.063-.563-.062-1.188.188-.75.438-.563.75-.688.938-.563.438-.125.5-.125h.25l.938,1.063.75,1,.125.063h.25l.188-.188.188-.5,1.438-.625.563-.375.5-.25,1.5-.375.313-.188.375-.188.25-.25.375-.188.438.063,2.814,1.689.188.5-.062.563.125.313.313.063.625-.438.876-.876.438-.188.625-.063.813-.188Z" fill="#366127" stroke="#fff" stroke-linecap="round" stroke-linejoin="round" stroke-width="1.251"/>
    <path id="DZA2222" d="M512.932,42.9l-1.188-.438-.5-.375-.375-.375-.313-.063-.25.188-.25.188-.188.063-1.126.063-.563.188-.938.188-1.313.125-1.063.25-.313.125-.375.25-.188.625-.125.313-.438.375-1.126.563-.313.25-.313.375-.313.5-.625.813L498.674,44.9l-.563-.313-.563-.313h-.75l-.5.25-.313.438-.188.563-.25.438-.5.5-.188.313v.438l-.063.438-.25.313-.563.125-1.939-.063-.438-.25-.438-1.251-.313-.438-.438-.313-1.251-.313-.438-.25-.5-.375-1.063-1.251-.563-.563-.876-1.313-1.313-2.877V37.022h.625l.375-.063.313-.188.188-.313.375-.813.313-.375.375-.25,1.939-.438h.625l.375-.125.375-.188.438-.625.313-.25,3-1,3-1.563,1.063-.063.5-.125.563-.25.5-.375.125-.75-.125-.563-.375-.563-.188-.375-.062-.813-.063-.313-.438-1.126.063-.25h.188l1.251.375.876-.063,3.5-1.939.438.938.125,1.751.188.25.313.063.5-.063.5-.188.375-.188.438-.25.438-.313.313-.313.625-.938.375-.438.563-.438.25-.188v.063l1.251.5,2.627.313.563.313.563.188.5.25.25.688.063.75-.062,1.563-.125.688-1.438,4.065-.125,1.5.125.75.25.688.063.688-.25.688-.375.625L513.12,40.4l-.063,2.064-.125.438Z" fill="#366127" stroke="#fff" stroke-linecap="round" stroke-linejoin="round" stroke-width="1.251"/>
    <path id="DZA2223" d="M512.932,42.9l-.688,2.376-.125,2.939.125,1.626.375,1.251,1.438,2.439.5,1.251L515,59.035V60.1l-1.126,2.627-.313,1.313-.062,1.376.188,1.5.688,1.313,1.188.563,1.251.375,1,.813-.25.75-1.876,2.814-1.376,1.563-.438,1.313-.5,2.752-.75,1.939-.313,1.438.063,1.376.563,3.69-.062.5-.313.438-.938,1-.375.563-.063.563.75,1.251-.188.375-1.126.688-.188.313-.188.625-.125.25-.25.25-.75.438-1.5,1.376L504.8,97.558l-1.313.876-2.627,1.188-1.126.876-.625,1.251-1.126,4.378-.25.563-.375.438-.625.313-1.876.313-1.188.625-.813.813-.75,1-1.251,1.313-6.379.188-1.689-.188-2.064-.688-2.064-1.063,2.126-4.94.688-2.689.5-3.377.313-1.188.563-1.689.313-.563.375-.375.125-.188.563-1.376,1.126-1.626.563-1.063.688-1.689.125-.688V87.74l-.062-.563-.438-1.376-.063-.375.125-2-.125-.5-.25-.5-.063-.313-.063-.438.063-.813-.125-.375-.25-.313-.375-.125-.563-.063-.5-.25-.125.063-.188.125-.313.625-.188.188-.563.25-.063.125-.25.5-.063.688v.25l.25.438.063.125.125.375v.625l.188.5V84.8l-.063.188-.25.125h-.188l-.125-.125-.25-.688-.125-.313-.063-.375-.25-.5-.188-.313-.063-.375v-.438l-.062-.375-.063-.375.063-.313.188-.438,1-1.5.938-.876,1.063-1.5,1.814-2,.438-.688.313-.75.125-1-.125-.688-.188-.625-.125-.563.063-.563.375-.75v-.625l-.062-.563-.063-.5.188-1.251v-.563l-.188-.438v-.375l.438-.438,2.814-1.126.75-.75,6.942-5.378.5-.188.5-.125.5-.188.5-.313.125-.563-.125-.688-.5-1.563-.062-.813.063-1,1.126-2.752.125-.313-.125-.438v-.375l.125-.563.625-.813.313-.5.313-.375.313-.25,1.126-.563.438-.375.125-.313.188-.625.375-.25.313-.125,1.063-.25,1.313-.125.938-.188.563-.188,1.126-.063.188-.063.25-.188.25-.188.313.063.375.375.5.375,1.188.438Z" fill="#366127" stroke="#fff" stroke-linecap="round" stroke-linejoin="round" stroke-width="1.251"/>
    <circle id="_0" data-name="0" transform="translate(415.311 18.073)" fill="#366127" stroke="#fff" stroke-linecap="round" stroke-linejoin="round" stroke-width="1.251"/>
    <circle id="_1" data-name="1" transform="translate(404.305 17.51)" fill="#366127" stroke="#fff" stroke-linecap="round" stroke-linejoin="round" stroke-width="1.251"/>
    <circle id="_2" data-name="2" transform="translate(430.57 91.868)" fill="#366127" stroke="#fff" stroke-linecap="round" stroke-linejoin="round" stroke-width="1.251"/>
  </g>
</svg>
